<?xml version="1.0" standalone="no"?>
<!DOCTYPE svg PUBLIC "-//W3C//DTD SVG 1.1//EN" "http://www.w3.org/Graphics/SVG/1.1/DTD/svg11.dtd" >
<svg xmlns="http://www.w3.org/2000/svg">
<metadata>
This is a custom SVG webfont generated by Font Squirrel.
Copyright   : Adapted by Jon Bernhardt in 1996 from the 1991 font by Cowan Design Associates Based on the famous handwriting of Matt Groening Punctuation lower case foreign characters added 19962000
Designer    : Jon Bernhardt
Foundry     : Jon Bernhardt
Foundry URL : httpwwwwobblymusiccomgroeningakbarhtml
</metadata>
<defs>
<font id="AkbarPlain" horiz-adv-x="1378" >
<font-face units-per-em="2048" ascent="1638" descent="-410" />
<missing-glyph horiz-adv-x="616" />
<glyph unicode=" "  horiz-adv-x="616" />
<glyph unicode="&#x09;" horiz-adv-x="616" />
<glyph unicode="&#xa0;" horiz-adv-x="616" />
<glyph unicode="!" horiz-adv-x="522" d="M66 78q-2 68 34 135q43 78 107 78q90 0 123 -70q20 -47 22 -149q2 -201 -131 -205q-66 -2 -112 74q-41 65 -43 137zM111 748l77 624v289q0 51 37 135q41 94 84 94q168 4 174 -354q0 -20 -37 -262q-35 -225 -75 -391q-78 -319 -154 -322q-102 -3 -106 187z" />
<glyph unicode="&#x22;" horiz-adv-x="880" d="M231 1513q-2 164 97 168q72 2 71 -137q0 -94 -14 -221q-25 -221 -84 -223q-35 -2 -53 96q-15 71 -17 317zM598 1454q0 215 76 217q49 2 65 -39q8 -20 11 -92q2 -72 -15 -188q-25 -178 -69 -178q-66 0 -66 176v36q0 48 -2 68z" />
<glyph unicode="#" horiz-adv-x="1966" d="M33 373q29 59 117 102t159 43h324q92 0 120.5 28.5t28.5 119.5v67q0 172 -82 172q-23 0 -71 -12q-104 -27 -164 -29q-82 -4 -137 37q-37 27 -39 66q-2 51 262 84q147 18 207 69q27 23 30 121q8 143 17 186q25 115 92 177q78 -55 78 -115q0 -27 -7 -81t-7 -81v-57 q0 -117 55 -117q111 0 145 21q51 31 53 126q0 66 13 193q23 123 82 125q53 2 63 -178q10 -203 60 -250q12 -10 112 -19q51 -4 324 -8q0 -14 6 -37q8 -29 10 -39q0 -115 -362 -114q-94 0 -127 -49q-27 -39 -27 -142q0 -164 84 -215q39 -23 205 -45q152 -23 239 -92v-115 q-76 0 -231 27q-72 12 -127 12q-90 0 -131 -35.5t-41 -123.5q0 -29 6 -97l8 -90q0 -119 -80 -168q-51 55 -63 195q-4 72 -18 217q-14 102 -89 102q-86 0 -118 -22q-45 -29 -45 -109q0 -115 8 -164q0 -72 -10 -96q-16 -43 -76 -43q-74 0 -82 107q-4 57 -12 206q-6 92 -76 97 q-18 0 -133 -13h-252q-78 -12 -111 -12q-108 0 -190 68zM938 713q0 -80 26.5 -112t104.5 -34q90 -2 123 54q23 41 22 139q0 35 -2 55v80q0 45 0 43q-4 23 -28 23q-246 0 -246 -248z" />
<glyph unicode="$" horiz-adv-x="1157" d="M61 428q-2 115 109 119q10 0 135 -68l146 -80h34q6 25 7 52v59q0 59 -89 133q-141 121 -161 145q-88 100 -90 224q-2 139 96 276q63 88 149 144q80 51 101 145q8 51 24 152q12 70 72 71q72 2 76 -170q0 -18 -2 -45v-39q0 -41 9 -53t50 -29q141 -57 242 -121v-149h-115 l-141 80q-12 -6 -31 -12v-357q209 -74 309 -160q139 -119 139 -303q0 -317 -339 -317q0 -137 6 -143q0 -184 -129 -187q-102 -2 -103 131v56q0 72 -16 108q-23 47 -84 68q-182 63 -227 86q-175 86 -177 184zM360 1022q0 -78 105 -141l6 10q-12 72 -14 110q0 2 2 48 q0 23 4 45q0 33 -14 82q-89 -134 -89 -154zM737 383h127q29 10 29 49q0 86 -154 184l4 -137q2 -41 -6 -96z" />
<glyph unicode="%" horiz-adv-x="1439" d="M119 1288q0 96 69 182q98 123 291 123q84 0 127 -82q33 -63 33 -155q0 -152 -113 -213q-84 -45 -250 -45q-72 0 -116 61q-41 53 -41 129zM311 1335l11 -20q8 -23 12 -39h67l45 45q20 20 21 37q0 10 -19.5 32.5t-29.5 22.5q-18 0 -62.5 -32t-44.5 -46zM313 2q0 221 90 438 q68 164 256 457q154 240 238 406q57 117 172 346q35 70 68 69q111 0 110 -139q0 -158 -155 -436q-90 -154 -267 -461q-14 -27 -112 -174q-72 -109 -123 -240q-20 -51 -78 -299q-29 -127 -88 -127q-39 0 -75 59.5t-36 100.5zM922 270q0 162 49 238q61 90 213 90 q238 0 237 -238q0 -127 -131 -229q-117 -90 -215 -90q-78 0 -119 80q-34 65 -34 149zM1081 303q0 -12 68 -47q4 4 61 59q31 29 31 52q0 18 -25.5 38.5t-44.5 20.5q-31 0 -60.5 -45t-29.5 -78z" />
<glyph unicode="&#x26;" horiz-adv-x="1529" d="M80 352q-2 143 162 338q33 39 166 176q-168 303 -172 539q-2 154 149 256q133 92 295 94q209 2 358 -110q166 -123 168 -326q2 -160 -129 -297l-278 -227q176 -268 233 -269q20 0 145.5 106.5t163.5 108.5q70 2 99 -16q39 -27 41 -111q2 -49 -115 -154.5t-117 -123.5 q0 -10 34 -46t36 -75q2 -66 -37 -109t-104 -45q-37 -2 -80 31q-84 63 -94 68q-328 -242 -551 -244q-170 -2 -275 137q-96 125 -98 299zM397 371q0 -125 78 -129q55 -2 150 43q84 41 135 84q-18 20 -101 147q-55 88 -81 88q-29 2 -103 -98t-78 -135zM541 1341q0 -68 116 -288 q123 76 166 118q61 59 64 132q4 156 -158 155q-100 0 -154 -57q-7 -11 -34 -60z" />
<glyph unicode="'" horiz-adv-x="458" d="M55 1526q23 127 121 133q78 4 109 -111q20 -74 20 -137q0 -57 -16 -166q-23 -139 -103 -131q-53 4 -96 211q-8 51 -35 201z" />
<glyph unicode="(" horiz-adv-x="780" d="M68 524q0 51 10 135q49 377 278 897q49 113 82 166q70 115 129 117q47 2 84 -43t39 -94q0 -14 -88 -215q-252 -575 -256 -944q0 -94 35 -213q39 -131 94 -191q12 -12 195 -170q166 -141 166 -155q2 -70 -56.5 -127.5t-128.5 -59.5q-49 -2 -180 99q-399 306 -403 798z" />
<glyph unicode=")" horiz-adv-x="1275" d="M53 1720q0 53 39 103.5t92 50.5q188 2 451 -256q207 -203 336 -422q180 -307 182 -571q0 -188 -137 -426q-125 -211 -287 -351q-197 -168 -371 -167q-117 0 -116 118q0 35 37 72q195 154 417 358q174 160 178 420q2 135 -75 316q-74 172 -172 278q-172 186 -310 275 q-55 33 -196 118q-68 41 -68 84z" />
<glyph unicode="*" horiz-adv-x="1236" d="M137 1358q0 10 25 39q35 31 78 33q39 2 100 -21q129 -47 156 -51q20 0 85.5 75.5t86.5 77.5q33 0 59 -61l55 -123q41 -70 105 -86l256 -61q51 -12 53 -56q2 -47 -70 -61q-68 -6 -135 -10q-74 -8 -76 -41q0 -8 17.5 -41t17.5 -45q0 -35 -45 -85t-80 -50q-39 0 -120.5 80.5 t-94.5 82.5q-23 0 -121 -47q-86 -41 -116 -45q-25 0 -37 15q-4 10 -8 41q0 37 86 239q0 43 -137.5 107.5t-139.5 93.5z" />
<glyph unicode="+" horiz-adv-x="1343" d="M135 725q0 55 66 84q51 23 114 22h303q45 61 52 261q4 162 67 161q61 0 62 -159v-82q0 -166 67 -166q37 0 139.5 27.5t147.5 27.5q51 0 92 -27q49 -31 49 -79q0 -68 -176 -117q-76 -20 -229 -62q-49 -23 -55 -118q-2 -72 -7 -144q-12 -104 -59 -104q-49 0 -55 94 q-2 57 -11 172q-10 94 -84 94h-323q-43 0 -98 37q-62 39 -62 78z" />
<glyph unicode="," horiz-adv-x="632" d="M4 -205q0 16 57 88q47 57 146 191q4 8 102 188q35 63 82 66q96 2 98 -97q2 -137 -131 -321q-139 -195 -270 -195q-39 0 -63 31q-17 29 -21 49z" />
<glyph unicode="-" horiz-adv-x="1167" d="M90 604q45 74 82 78q16 0 63.5 -15.5t73.5 -25.5q37 -10 68 -14q10 0 20 -2h31q143 0 438 28q25 0 56 -18q72 -43 110 -70q-174 -84 -231 -102q-145 -49 -346 -49q-100 0 -215 43q-146 55 -150 147z" />
<glyph unicode="." horiz-adv-x="620" d="M133 90q-2 78 63.5 161t143.5 85q55 2 94 -37t39 -94q0 -96 -67.5 -167t-163.5 -73q-74 -2 -95 25q-12 20 -14 100z" />
<glyph unicode="/" horiz-adv-x="1144" d="M33 158q0 14 45 129q135 342 317 624l289 449q74 113 100 145q76 88 146 88q61 0 108 -69q43 -61 45 -127q2 -72 -163 -297q-80 -109 -164 -209q-14 -123 -140 -266q-186 -215 -266 -418q-29 -115 -57 -223q-18 -68 -107 -68q-76 0 -118 88q-33 68 -35 154z" />
<glyph unicode="0" d="M63 868q-12 254 121 549q121 270 297 271l158 -29l276 -47q129 -23 248 -211q154 -244 154 -559q0 -279 -103 -484q-127 -254 -374 -278l-41 -4h-43q-231 0 -431 166t-235 393q-23 147 -24 188zM385 807q0 -66 6 -115q12 -80 123 -250q98 -152 201 -153q141 -4 223 231 q74 213 74 443v71q-6 23 -11 66q-4 33 -129 205q-111 152 -213 157q-152 -12 -223 -270q-49 -170 -51 -385z" />
<glyph unicode="1" d="M80 160q0 92 94 92q41 0 122 -14.5t122 -14.5q184 0 184 242q0 199 -43 514q-18 123 -53 371q-6 6 -19 6q-12 0 -128.5 -92.5t-159.5 -92.5t-81 34t-38 77q0 16 74 102q223 262 426 263q57 0 112 -105q68 -127 68 -321v-539q0 -74 12 -213q18 -213 62 -227 q37 -12 102 -13q33 0 96.5 4.5t95.5 4.5q170 0 170 -95q0 -51 -40.5 -87t-94.5 -36h-538q51 0 -62 17q-98 16 -164 22q-125 12 -295 13q-2 8 -14 47q-10 33 -10 41z" />
<glyph unicode="2" d="M143 1165q0 45 150 207q115 123 196 193q137 117 236 116q76 0 133 -36l119 -76q59 -37 97 -117t40 -154q2 -201 -260 -688l-139 -258q0 -18 35 -20l43 6l53 8h123l84 4q82 4 133 -63q47 -59 51 -146q0 -16 -86 -47q-88 -23 -229 -37q-45 0 -136.5 -6t-136.5 -6 q-35 0 -105.5 -13.5t-107.5 -13.5q-43 0 -57 48q-14 72 -14 129v30l2 33q82 152 344 643q14 27 106 195q72 131 74 198q2 78 -68 123l-59 39q-88 0 -211 -133l-270 -293q-37 0 -84.5 48t-55.5 87z" />
<glyph unicode="3" horiz-adv-x="1306" d="M225 1524q0 39 37 59q78 31 211 58.5t211 27.5q20 0 29 2q133 0 196 -67l107 -113q43 -45 49 -105q0 -190 -94 -301l-125 -147v-18q102 -18 204.5 -126t102.5 -210q2 -223 -201 -400q-195 -168 -422 -168q-63 0 -130.5 60.5t-69.5 124.5q0 29 67 41l131 -11 q84 -6 246 121t162 209q0 59 -97.5 125t-160.5 66l-160 -60q-27 -6 -51 -12q-12 0 -39 -4q-16 0 -20 4l-43 18q-20 18 -23 95q0 51 61 92q55 31 111 59q154 94 193 131q129 121 131 303q0 23 -44 47.5t-73 28.5q-113 0 -197 -22l-192 -52q-51 0 -96 95q-7 12 -11 49z" />
<glyph unicode="4" horiz-adv-x="1331" d="M203 690q0 16 114 266q313 682 373 682q47 0 135 -36q98 -39 107 -76q18 -82 20 -256q0 -61 4 -236l7 -215q0 -10 22 -22l94 -13q31 0 66 -77q29 -63 31 -107q2 -23 -50 -27l-122 13q-25 0 -25 -13l8 -186l8 -233l13 -113q0 -33 -25 -41q-129 0 -174 82q-25 45 -47 207 q-27 184 -29 250q-2 31 -41 32l-319 -75q-166 -1 -170 194zM432 723h37l66 12l114 13q51 0 62 14q6 8 16 43l2 29l2 55l-2 33v272q0 47 4 72q0 16 -14 22q-96 0 -158 -100q-51 -84 -82 -227q-14 -80 -47 -238z" />
<glyph unicode="5" d="M236 92q-2 45 20 80l45 72q541 0 545 235q0 63 -29 142l-119 30q-41 10 -149 15q-72 2 -119 28l-115 64q-57 98 -55 203l2 180q0 39 4 65v131q0 213 113 269q63 31 319 32q25 0 148 -8l90 -6q33 -2 139 14l41 -28q29 -18 29 -103q2 -104 -29 -123l-41 -16q-51 0 -168 10 l-139 13q-139 0 -190 -82q-43 -63 -43 -211q-2 -152 153 -213l287 -80q156 -66 155 -248q2 -428 -358 -500l-225 -45q-61 -12 -141 -12q-168 0 -170 92z" />
<glyph unicode="6" d="M104 702q0 322 158 607q190 340 486 329l59 -2h59l37 2h21l90 -59q37 -25 65.5 -72t28.5 -88q0 -47 -43 -63q-20 -2 -57 -10h-27q-303 0 -395 -58q-127 -78 -131 -352q6 -31 96 -31q88 0 182 19l166 32q252 0 330 -190q45 -111 45 -416q0 -147 -197 -256 q-168 -92 -329 -94q-193 -2 -351 133q-135 117 -219 311q-74 172 -74 258zM436 492q0 -39 21 -84q6 -4 51 -26t91 -38t99 -18q80 -2 226 82q90 76 90 170q0 96 -90 122l-39 -10l-60 -2l-96 2l-102 8q-55 4 -122 -68t-69 -138z" />
<glyph unicode="7" d="M94 1380q0 37 4 50l21 59q18 55 356 106q274 41 406 43q258 2 370 -69q31 -20 33 -111q4 -233 -231 -911q-76 -221 -166 -455q-12 -35 -53 -57l-80 -25l-70 -10q-41 0 -63 18q-10 12 -17 50v16l29 78l117 307l182 518q90 258 94 352q0 12 -10 29q-14 43 -193 43 q-354 0 -639 -158q-68 37 -82 80z" />
<glyph unicode="8" d="M147 1137q0 211 187 360q174 139 391 141q121 2 231.5 -59t163.5 -166q68 -129 82 -213l23 -129q0 -39 -23 -61l-35 -47q-8 -10 -14 -45q0 -33 31 -168l39 -170l8 -82q0 -233 -211 -375q-182 -121 -430 -123q-156 -2 -283 233q-113 209 -114 377q0 80 32 107 q-10 92 -59 338q-5 23 -19 82zM344 1094q27 -94 43 -125q37 -70 98 -72l54 -2h43q23 0 139 63q49 27 145 80l19 84q8 37 10 105q6 164 -129 164q-96 0 -254 -103q-168 -108 -168 -194zM492 473q0 -29 16 -63q6 -27 14 -48q0 -8 21 -43q96 -18 170 -18q264 0 266 217 q0 53 -18 100l-37 95q-55 31 -142 30q-217 0 -282 -155l-8 -66v-49z" />
<glyph unicode="9" d="M104 1288q0 145 197 254q172 94 330 96q236 2 442 -233q199 -229 201 -469q2 -322 -158 -604q-188 -332 -485 -332h-62l-59 2l-55 -2l-93 57q-39 25 -69 80q-18 43 -23 82q0 49 41 64q53 8 84 10q188 14 258 22q111 14 160 45q111 68 111 342q-6 31 -97 31 q-74 0 -184 -20l-166 -31q-248 0 -325 192q-46 115 -48 414zM346 1102q0 -117 107 -164l39 10l61 2h45q31 0 53 -4l99 -6q61 -4 125.5 70.5t66.5 138.5q2 39 -20 82q-197 113 -275 112q-84 0 -225 -81q-76 -64 -76 -160z" />
<glyph unicode=":" horiz-adv-x="567" d="M86 985q0 63 49 106.5t113 45.5q94 2 128 -36t36 -134q4 -152 -146 -156q-70 -2 -125 51t-55 123zM141 186q-4 158 176 158q123 0 129 -145q0 -23 -2 -31q-6 -90 -36 -117q-39 -33 -125 -35q-53 -2 -99 60q-41 55 -43 110z" />
<glyph unicode=";" horiz-adv-x="745" d="M102 -219q0 47 80 72q59 16 119 30q135 41 135 215q0 23 -4 69t-4 69q0 86 76 86q35 0 82 -52q70 -76 69 -202q0 -143 -88 -299q-100 -176 -233 -177q-88 0 -156 50q-76 55 -76 139zM328 1108q0 57 16 76q25 27 109 26q66 0 113.5 -35.5t47.5 -99.5q0 -63 -32 -110 q-35 -53 -97 -54q-74 0 -118 64q-39 57 -39 133z" />
<glyph unicode="&#x3c;" horiz-adv-x="1013" d="M172 762q0 98 78 184q57 63 209 170q88 63 266 207q80 66 119 66q37 0 69.5 -33t32.5 -70q0 -70 -135 -182q-57 -47 -254 -184q-135 -94 -135 -119q0 -51 249 -238.5t249 -210.5q0 -102 -117 -102q-104 0 -346 207q-53 43 -160 131q-125 106 -125 174z" />
<glyph unicode="=" horiz-adv-x="1415" d="M139 1114q0 150 320 150q152 0 233 -31l406 41q96 -6 141 -31q63 -37 64 -123q0 -119 -132 -119q-39 0 -133 21q-195 -55 -293 -55q41 0 -47 8q-80 8 -133 12q-129 2 -256 4q-170 17 -170 123zM283 516q0 129 198 139q96 2 289 4q131 18 203 19q10 0 53 -5t49 -3 q150 47 234 47q27 0 51 -53q20 -45 20 -76q0 -123 -215 -164q-162 -31 -592 -31q-168 0 -200 8q-90 23 -90 115z" />
<glyph unicode="&#x3e;" horiz-adv-x="1034" d="M236 1407q0 37 23.5 66.5t59.5 29.5q25 0 121 -98l226 -238q53 -55 231 -221q66 -61 66 -117q0 -109 -279 -340q-217 -180 -340 -180q-37 0 -62.5 26.5t-25.5 63.5q0 35 49 68q33 20 412 313q18 18 18 35q0 23 -104 121q-174 164 -260 254q-135 141 -135 217z" />
<glyph unicode="?" horiz-adv-x="1441" d="M174 1493q29 45 45 72q174 211 590 211q217 0 373 -80q197 -100 198 -297q2 -147 -125 -264q-63 -57 -231 -207q-125 -113 -127 -213q0 -8 39 -97q18 -43 20 -92q2 -82 -26.5 -108.5t-110.5 -28.5q-43 0 -121 80q-92 96 -92 219q0 164 152 326l332 350q0 76 -123 96 q-51 8 -179 10q-236 2 -350 -73q-55 -37 -116 -37q-49 0 -97.5 42t-50.5 91zM580 35q20 27 73 86q80 86 133 86q57 0 107.5 -45t52.5 -103q2 -61 -62.5 -136t-125.5 -79q-29 -2 -99 60q-79 70 -79 131z" />
<glyph unicode="@" horiz-adv-x="2109" d="M121 625q0 506 275.5 794.5t777.5 288.5q438 0 651 -256q176 -211 176 -553q0 -197 -143 -479q-154 -301 -320 -369q-137 -55 -502 -55q-520 0 -757 250q-158 166 -158 379zM334 727q0 -541 698 -541q160 0 228 9q139 18 208 79q53 47 107 99q-121 0 -334 286 q-86 -123 -221 -206q-147 -90 -287 -91q-137 0 -229 113q-88 104 -88 246q0 293 205 483q170 160 346 160q121 0 225 -33q152 -47 151 -139q0 -43 -12 -59q-2 -2 -45 -31q59 -12 96 -137q53 -176 78 -222q66 -117 193 -116q76 0 119 164q29 109 28 170q0 174 -155 352 q-162 182 -334 182q-432 0 -680 -162q-297 -194 -297 -606zM653 754q0 -127 92 -127q166 0 248 84q49 49 104.5 187t104.5 189q-51 0 -132 25t-116 25q-78 0 -190 -154q-111 -145 -111 -229z" />
<glyph unicode="A" horiz-adv-x="1490" d="M66 80q0 123 43 237q88 231 184 603q25 98 76 294q51 182 137 291q102 131 254 133h2q150 0 274 -280q139 -313 178 -496l158 -731l-14 -53q-16 -57 -68 -74l-35 -4q-35 0 -49 4l-41 12v95l2 90q0 15 1 28q0 117 -31 168q-45 76 -174 76q-238 2 -238.5 2t6.5 0 q-131 -4 -209 -43q-98 -51 -141 -168q-49 -131 -176 -237l-41 -13l-45 -4q-33 0 -47 21q-6 18 -6 49zM508 776l84 12l51 5l135 -11h10q85 0 226 97q-12 90 -80 278q-80 221 -131 225l-27 2h-14q-82 0 -129 -122q-25 -66 -62 -261q-32 -170 -63 -225z" />
<glyph unicode="B" horiz-adv-x="1480" d="M66 254l34 47l183 -12q-70 315 -74 491v14q0 83 22 121l52 50q-4 18 -19 51q0 16 -18.5 93t-18.5 126q0 403 490 403q119 0 252 -110.5t133 -227.5q0 -96 -29 -185t-117 -150q98 -47 199 -95q104 -55 156 -118q61 -82 63 -203l-28 -90q-4 -10 -25 -51 q-102 -209 -313 -314q-188 -94 -437 -94q-178 0 -284 51l-197 94zM420 1325l10 -352q37 10 156 22q98 10 151 33q76 31 164 109l37 106l-37 154q-47 29 -119 30l-164 5h-26q-127 0 -146 -37zM428 289q0 -49 76 -49q53 0 154.5 24.5t154.5 24.5l150 55q131 49 165 137 l-49 172q-57 39 -231 76q-160 35 -248 35q-172 0 -172 -90v-385z" />
<glyph unicode="C" horiz-adv-x="1400" d="M66 854q0 314 209 548q212 237 526 236q119 0 311 -100q211 -111 211 -205q0 -18 -14 -35q-190 57 -353 62h-18l-72 -6q-10 -2 -37 -6q-8 0 -20 -11q-338 0 -430 -104q-86 -96 -86 -442q0 -264 264 -396q141 -72 498 -137q332 -61 334 -123l-56 -108l-194 -27 q-334 0 -578 92q-315 121 -420 379q-75 187 -75 383z" />
<glyph unicode="D" horiz-adv-x="1536" d="M88 811q0 102 2 156l10 264q2 66 13 205q4 37 26 202q37 -8 541 -79q358 -49 504 -121q258 -127 258 -430q0 -236 -60 -383q-72 -176 -249 -291q-129 -84 -615 -334h-379l-26 213q-12 98 -13 199q0 68 -6 199.5t-6 199.5zM340 584q0 -14 4 -191q2 -102 21 -198l278 57 l389 268q86 76 158 488q0 100 -115 161q-74 41 -235.5 77t-231.5 73l-231 45q0 -76 -8 -199q-8 -152 -11 -198q-6 -107 -18 -383z" />
<glyph unicode="E" horiz-adv-x="1658" d="M76 627v151q27 6 43 28.5t55 33.5q61 14 213 16q0 39 -12 234l-13 194q-1 15 0 29q0 167 132 258q92 63 323 80q98 6 221 8h8q230 0 234 -123l-51 -111q-182 -70 -391 -94q-111 -12 -152 -92q-27 -52 -27 -153v-27q8 -234 10 -234q1 0 1 29q430 119 549 121h5 q99 0 99 -76q0 -37 -33 -121l-377 -102q-279 -78 -280 -168v-11q0 -111 41 -182q51 -94 162 -94q96 0 282.5 32t276.5 34h12q180 0 186 -115l9 -14q6 -6 6 -25q0 -49 -113 -70l-295 -55q-2 0 -170 -20q-68 -8 -94 -8h-59q-37 2 -234 8q-104 4 -137 26q-16 16 -49 52l-33 53 l-2 317q0 154 -39 156l-51 -17q-33 -10 -76 -14q-92 0 -180 66z" />
<glyph unicode="F" horiz-adv-x="1302" d="M59 823l7 211q6 225 38 316q55 152 222 211q199 72 487 75l137 2l150 7h12q94 0 123 -60q20 -39 20 -160q-6 -27 -340 -45q-367 -20 -428 -39q-190 -55 -192 -245v-11q0 -104 39 -153q41 -54 134 -54q10 0 19 1l142 8l119 10q18 2 34 2q44 0 76 -12q47 -4 94 -33 q47 -21 48 -118q0 -50 -21 -95l-369 -33l-280 27l20 -199l-20 -409q-23 -49 -92 -50l-56 7q-31 0 -55 24l-31 45q0 72 -4 156q-4 98 -14 311z" />
<glyph unicode="G" horiz-adv-x="1566" d="M70 660q0 315 274 602q238 246 569 376l119 -10l68 -84q-63 -33 -338 -194q-500 -293 -504 -742v-5q0 -170 122 -293q124 -124 298 -124q322 0 655 564q-274 76 -600 75h-47q-55 0 -68 2q-76 2 -79 62q12 104 538 108q19 0 38 1q164 0 261 -17q98 -16 99 -184 q0 -137 -181 -359q-358 -438 -661 -438q-203 0 -387 229q-176 220 -176 431z" />
<glyph unicode="H" horiz-adv-x="1662" d="M76 655q57 123 147 164l129 33q25 76 27 160l8 266v211q0 82 100 86h9q67 0 88 -64l-21 -57l-6 -53q0 -43 10 -76l11 -61l-7 -31l-22 -369h223q106 0 137 10l238 25q33 0 65 -10l117 -37q0 111 23 295l24 201v63q-2 18 -10 51q0 45 -31 121l-6 25l98 30l91 -30v-478 l12 -667q1 -30 1 -57q0 -135 -18 -183q-16 -49 -90 -82q-63 0 -94 113q-20 74 -22 166q0 7 -1 13q0 97 29 188q-180 0 -297 -15q-61 -8 -223 -28q-88 0 -254 32l6 -145q0 -7 1 -17q0 -38 -7 -110q-4 -29 -10 -100l-14 -230l-154 -8l-18 309l18 301q-80 0 -133 -12l-64 -29 l-34 25z" />
<glyph unicode="I" horiz-adv-x="976" d="M41 1442q0 10 20 43l35 59q96 70 281 74q76 2 117 4q78 4 114 16h215q25 -39 25 -63q0 -20 -76 -49q-96 -39 -139 -76q-66 -57 -66 -146v-16l4 -65l11 -262q0 -43 4 -156q6 -84 12 -215q2 -84 20 -187q6 -33 27 -122q68 0 150 -35q66 -28 65 -78q0 -26 -49 -100 q-10 -16 -25.5 -39t-40.5 -29l-81 35q-39 10 -82 14l-207 -12q-10 -1 -20 -1q-134 0 -195 107q0 84 84 107q37 10 153 10h62q0 88 -7.5 266.5t-7.5 266.5q0 55 -32 329l-17 138q0 72 39 157l-141 -2h-174q-78 0 -78 27z" />
<glyph unicode="J" horiz-adv-x="882" d="M45 190q0 76 49 78h2q31 0 164 -80q127 -76 186 -77h3q55 0 88 79q0 193 -23 617q-2 61 -14 225q-2 31 -29 211v41q8 37 39 123l-154 -2h-129q-129 0 -129 27q0 14 23 51l35 57q94 74 293 76q59 0 122 4q86 4 121 18h228q25 -37 26 -65q0 -20 -78 -51q-102 -39 -145 -76 q-72 -61 -72 -155v-15l4 -72l11 -256l18 -395q8 -174 47 -340q-76 -213 -299 -213q-109 0 -219 49q-121 55 -168 141z" />
<glyph unicode="K" horiz-adv-x="1185" d="M53 49q45 319 84 756q6 88 21 266q49 563 200 567l33 -6q70 -25 70 -174q0 -55 -29 -287l-29 -231q0 -86 37 -98q2 0 4 -1q42 0 160 152l254 324q115 146 151 146q2 0 5 -1l88 -47q33 -16 33 -64q0 -132 -195 -300q-135 -117 -281 -271q35 -35 146 -225l147 -254 q35 -59 99 -115l14 -36l8 -48q0 -66 -53 -88l-35 -6q-41 0 -55 10q-61 31 -191 244q-98 162 -159 234q-109 125 -228 157q-33 -68 -69 -325q-33 -231 -80 -279l-80 -49z" />
<glyph unicode="L" horiz-adv-x="1198" d="M55 96l19 592q2 61 35 244q100 559 194 676l59 20q14 0 29 4q25 4 39 6l35 -6q49 -8 53 -98q2 -33 -4 -64q0 -4 -37 -120q-10 -31 -28 -64l-43 -164l-72 -336q-31 -143 -31 -280q0 -229 408 -234h16q140 0 324 33q45 8 79 17l31 -29q12 -12 21 -57q0 -16 -13 -41l-28 -41 q-332 -154 -791 -154h-55q-109 0 -141 8q-79 18 -99 88z" />
<glyph unicode="M" horiz-adv-x="2541" d="M37 250q0 168 108 493q98 297 222 514q199 350 385 351q98 0 178 -185l149 -458q78 -240 201 -410q197 141 317 332q80 125 199 416q102 248 170 249h3q40 0 99 -53q125 -186 175 -393q27 -117 79 -494q41 -309 105 -491l49 -105q27 -57 27 -112q0 -98 -113 -99l-66 7 l-53 16q-78 98 -129 315q-29 121 -59 385q-31 254 -64 383q-209 -61 -323 -223l-197 -276q-119 -135 -305 -136q-137 0 -168 66q-20 43 -102 348q-76 281 -203 500q-203 -133 -305 -379q-70 -168 -119 -481q-41 -264 -92 -267h-2q-45 0 -148 121q-18 11 -18 66z" />
<glyph unicode="N" horiz-adv-x="1759" d="M78 735q0 201 78 387q100 240 274 242h2q98 0 316 -258q39 -45 266 -342q215 -279 250 -281q10 0 16 29q0 186 -4 352l-8 330q-1 25 -1 48q0 179 42 284l69 73q35 37 86 39h5q55 0 100 -51q25 -35 78 -104l-29 -465q-25 -158 -31 -217q-12 -121 -12 -199q0 -217 -62 -420 q-37 -123 -141 -125h-4q-71 0 -186 74l-695 889q-8 8 -24 14q-39 0 -57 -170q-10 -96 -11 -205q0 -367 70 -528l-14 -43q-10 -29 -21 -45q-20 -43 -86 -43q-51 0 -104 47l-50 55l-92 439q-20 98 -20 194z" />
<glyph unicode="O" horiz-adv-x="1566" d="M68 655q0 369 168 650q199 332 542 333h4q284 0 480 -331q172 -292 172 -600q0 -301 -353 -517q-307 -188 -630 -190h-4q-202 0 -304 240q-75 177 -75 415zM389 510q0 -59 62 -127l86 -45q35 -18 116 -23l99 9q127 10 245 221q109 192 109 337q0 158 -86 289 q-100 152 -254 152l-41 -4q-156 0 -225 -270q-45 -172 -49 -394q-6 -16 -34 -62t-28 -83z" />
<glyph unicode="P" horiz-adv-x="1110" d="M39 1096v15q0 196 148 357q155 168 360 170h4q184 0 340 -178q154 -176 154 -369q0 -201 -160 -323q-145 -113 -359 -115h-10q-120 0 -192 47l41 -280q19 -128 19 -213q0 -15 -1 -29l-2 -49q0 -6 -4 -47q-8 -78 -80 -82l-41 4q-25 2 -49 35l-49 63l-74 355 q-33 158 -35 231zM287 1133l4 -58q10 -139 24 -186q10 -33 164 -35h9q148 0 245 66q115 76 131 221q-59 123 -121 168q-72 57 -196 57q-125 0 -193 -53q-68 -54 -68 -157q0 -11 1 -23z" />
<glyph unicode="Q" horiz-adv-x="1748" d="M68 690q0 358 225 629q240 289 590 289q246 0 499 -176q274 -190 275 -426q0 -264 -156 -461q-186 -236 -368 -328l-185 -92l-10 -25l-4 -43q0 -119 104 -270l9 -25l6 -30q0 -86 -144 -90q-41 0 -65 55q-4 12 -29 115q-119 227 -295 315l-323 160q-129 108 -129 403z M287 724q0 -167 90 -284q72 -92 241 -196l37 65q41 184 76 185q55 0 146 -193q246 88 385 262q150 184 151 434v5q0 165 -162 272q-145 96 -319 98h-6q-261 0 -448 -187q-191 -191 -191 -461z" />
<glyph unicode="R" horiz-adv-x="1175" d="M74 125v846q0 274 149 463q164 205 430 204q123 0 242 -141q115 -138 115 -265q0 -200 -172 -331l-318 -242l477 -342q37 -33 58 -149q-61 -92 -133 -94h-4q-66 0 -152 80l-229 215q-137 127 -261 209l21 -523l-131 -55zM264 1034l12 -194q160 0 304 106q127 94 206 248 q-12 57 -53 127q-49 84 -98 84q-127 0 -253 -123q-118 -115 -118 -233q-1 -7 0 -15z" />
<glyph unicode="S" horiz-adv-x="1247" d="M55 264v98q0 55 33 56q283 -141 631 -142q78 16 102 91q14 43 15 145q0 154 -172 236l-320 151q-174 106 -174 281q0 142 211 303q201 154 352 155q8 0 15 1q106 0 192 -27q135 -41 135 -131q0 -45 -35 -99l-82 9h-34q-18 0 -52 2h-14q-379 0 -381 -215q0 -51 232 -185 q281 -162 309 -186q125 -108 125 -350q0 -206 -211 -340q-184 -117 -404 -117q-156 0 -292 57q-181 74 -181 207z" />
<glyph unicode="T" horiz-adv-x="1179" d="M57 1372q0 33 19 49l33 29q59 0 179 -13.5t179 -13.5q12 0 14 15l-4 28l-2 29l6 39q6 23 23 41q6 10 50 25.5t64 37.5q61 -10 84 -114q25 -115 33 -121l66 -17l106 -8l127 6l101 15l32 -43q18 -25 19 -74q0 -31 -17 -53l-26 -37h-105q-4 0 -65 8l-168 23 q-37 0 -49.5 -12.5t-22.5 -51.5q-12 -53 -12 -444l2 -674l-127 -41l-104 39l-21 258l-6 256v25q0 89 10 329l10 240q0 8 1 15q0 30 -7 57q-35 53 -90 53l-70 -10l-81 -9q-78 0 -146 45l-24 35q-3 6 -11 39z" />
<glyph unicode="U" horiz-adv-x="1583" d="M70 1538q-2 47 45 72q31 10 39 14l57 14l78 -18q37 -12 63 -45l-10 -219l-8 -287q-1 -43 -1 -84q0 -443 142 -641q84 -119 244 -121h7q126 0 206 70q51 45 139 188q135 221 135 568q0 254 -65 479l26 51q16 20 64 25l67 6q53 0 70 -17l33 -32l55 -316l-16 -520 q-41 -307 -203 -502q-184 -223 -475 -223q-338 0 -490 250q-96 160 -159 565z" />
<glyph unicode="V" horiz-adv-x="1394" d="M63 1435q0 75 37 93q39 10 76 14q29 12 49 12q96 0 162 -233q25 -102 74 -305q115 -463 172 -520q10 -6 26 -13q35 0 168 377q55 166 172 496q80 209 244 282l41 -26q39 -25 49 -76q0 -78 -84 -170q-121 -238 -225 -616q-115 -414 -180 -555q-43 -90 -166 -144 q-94 -41 -148 -51q-94 0 -157 264q-31 172 -62 342q-86 432 -141 547l-72 147q-35 72 -35 135z" />
<glyph unicode="W" horiz-adv-x="2258" d="M104 1356v28q0 47 29 95q6 8 31 32l72 56l34 6q111 0 150 -273q12 -186 57 -552q41 -223 121 -226q23 0 49 15q49 80 152 307q184 412 348 467l98 32q74 0 129 -151q37 -98 139 -467q86 -309 117 -346q23 -20 43 -29q88 0 166 447q63 367 64 555q0 123 -21 157 q37 129 146 129l67 -10q51 -8 76 -61q10 -29 22 -101l-55 -501l-141 -461q-57 -190 -107 -279q-76 -139 -202 -213q-18 -10 -58 -14q-37 0 -74 12l-59 31q-119 121 -147 293l-58 338q-27 158 -178 278q-1 0 -3 1q-38 0 -150 -255q-195 -436 -246 -536q-61 -119 -152 -121h-2 q-62 0 -112 98q-63 168 -142 506q-78 346 -137 506l-55 151q-3 23 -11 56z" />
<glyph unicode="X" horiz-adv-x="1298" d="M55 1401q0 145 154 162l37 4h18q51 0 70.5 -20.5t23.5 -73.5l-2 -68v-15q0 -122 64 -214q55 -80 176 -164l330 612q8 8 30 14q31 0 64 -43q2 -4 29 -43q12 -23 26 -47q0 -156 -139 -409l-145 -265q70 -25 194 -225q201 -324 201 -434q0 -49 -53 -111q-39 -47 -105 -49h-3 q-78 0 -132 117l-117 248q-59 127 -121 170l-159 -283q-78 -137 -109 -211q-43 -33 -57 -39q-25 -12 -68 -14h-6q-49 0 -79 32q-34 36 -34 93q0 50 43 164q12 25 21 35q94 117 151 233l97 197q-289 215 -369 526q-31 62 -31 121z" />
<glyph unicode="Y" horiz-adv-x="1427" d="M57 123q0 39 43 41q8 0 115 -25l131 -30q43 -6 109 -7q365 0 559 398q76 154 86 268l20 215l-137 -219q-80 -104 -219 -105q-158 0 -254 58.5t-168 197.5q-98 193 -98 369v121q0 117 2 129q12 68 73 94l119 -8q37 -25 58 -78q14 -55 16 -119v-11q0 -43 -12 -126l-13 -84 q0 -106 27 -203q37 -137 113 -145l90 -10q96 0 188 164l180 323q117 172 269 172q57 -24 57 -108q0 -32 -27 -135l-26 -105q0 -252 -104.5 -544t-264.5 -486q-178 -215 -409 -217h-32q-430 0 -466 108q-25 76 -25 107z" />
<glyph unicode="Z" horiz-adv-x="1325" d="M59 202q0 215 177 433q94 119 350 340q233 203 233 270q0 86 -143 129q-92 27 -184 27h-13l-86 -2q-43 -2 -143 -15q-33 51 -35 97v2q0 107 203 145q49 10 137 10q13 0 25 1q190 0 346 -29q279 -49 280 -168v-4q0 -179 -178 -416q-74 -98 -301 -317q-207 -197 -283 -320 q-20 -33 -34 -70q0 -39 92 -49l180 -18l117 -23l90 -6h8q34 0 92 14l64 17q33 0 45 -4l90 -33q68 -25 69 -76q0 -1 1 -1q0 -46 -123 -89q-94 -33 -377 -37l-131 -2h-127q-203 0 -273 17q-168 39 -168 177z" />
<glyph unicode="[" horiz-adv-x="638" d="M16 1157v522q0 238 437 244q74 0 147 -49q82 -53 84 -123q2 -72 -94 -76q-80 -4 -129 8q-209 0 -197 -256q39 -827 39 -989q0 -137 -22 -340q0 -29 24 -41q180 -37 273 -57q104 -41 106 -117q2 -88 -104 -129q-78 -31 -183 -30q-236 -2 -282 40q-55 49 -58 283 q-2 272 6 524q0 6 -16 222q-15 192 -31 364z" />
<glyph unicode="\" horiz-adv-x="1314" d="M88 1575q6 49 47 80t92 31q23 0 39 -5q25 -2 86 -98q96 -150 209 -358l199 -367q156 -270 282 -444q45 -59 160 -215q49 -68 49 -142q0 -156 -137 -155q-18 0 -29 2q-31 0 -364 481q-147 213 -229 346q-117 190 -238 422q-176 338 -166 422z" />
<glyph unicode="]" horiz-adv-x="1175" d="M98 -127q0 137 394 180q37 0 108.5 -7t108.5 -7q45 0 67 20q10 10 15 31v1419q-74 115 -357 119q-57 0 -104 48t-47 104q0 127 133 127q102 0 323 -80q272 -98 273 -205v-1616q0 -172 -303 -229q-145 -27 -426 -29q-185 0 -185 125z" />
<glyph unicode="^" horiz-adv-x="1085" d="M172 1100q-2 47 121 221q135 193 242 195q41 0 271 -158t234 -189q0 -47 -30.5 -76.5t-77.5 -31.5t-156 65l-229 144q-41 0 -133 -138.5t-133 -140.5q-105 -2 -109 109z" />
<glyph unicode="_" horiz-adv-x="1683" d="M-285 -195q-2 80 314 103q139 10 333 10h144q88 0 129 -2l919 41q39 2 134 -29q117 -37 116 -80q0 -121 -555 -149q-119 -6 -651 -6h-610q-53 0 -146 28q-125 39 -127 84z" />
<glyph unicode="`" horiz-adv-x="755" d="M168 1419q0 129 98 129q41 0 125 -118q57 -80 80 -127q41 -53 137 -76q70 -16 70 -88q0 -49 -50 -110.5t-100 -61.5q-360 190 -360 452z" />
<glyph unicode="a" horiz-adv-x="1087" d="M-6 379q0 180 176 338q170 154 352 153q47 0 89 -31.5t42 -76.5q0 -29 -18 -60q125 -47 125 -149q0 -18 -6 -55t-6 -56q0 -20 4 -30q27 -70 135 -179q100 -100 100 -114q0 -47 -29.5 -79t-74.5 -32q-82 0 -156 48t-113 122q-4 1 -8 1l-69 -46q-47 -61 -56 -65 q-66 -29 -205 -29q-115 0 -204 129q-78 113 -78 211zM170 391q0 -43 37 -96q47 -68 115 -68q139 0 186 154q27 137 51 272q-20 0 -59 7.5t-60 7.5q-70 0 -170 -102.5t-100 -174.5z" />
<glyph unicode="b" horiz-adv-x="1269" d="M76 762v653q0 55 35.5 157.5t70.5 137.5q82 -45 82 -160q0 -23 -8 -66.5t-8 -64.5v-360q0 -252 51 -535q51 31 104 119q63 106 91 133q59 61 145 62q252 0 414 -213q137 -180 137 -387q0 -80 -83 -175.5t-161 -95.5q-240 0 -526 105q-106 39 -109 39q-14 0 -28.5 -7.5 t-28.5 -7.5q-39 0 -83 34t-50 71q-2 12 -2 28q0 34 8 88q9 75 9 114q0 8 -1 13q-8 107 -59 318zM434 299q311 -119 420 -119q90 0 121 31q10 23 10 55q0 109 -96 238q-102 135 -207 135q-33 0 -140.5 -118t-107.5 -163v-59z" />
<glyph unicode="c" horiz-adv-x="1003" d="M72 446q0 244 198 404q174 141 385 141q23 0 50.5 -38t27.5 -62q0 -109 -117 -143q-72 -20 -213 -62q-117 -61 -116 -233q0 -168 153 -168h45q29 0 76 8q59 12 152.5 39.5t111.5 27.5q23 0 93 -32v-84q-45 -49 -250 -123q-188 -68 -234 -68q-174 0 -270 111 q-92 104 -92 282z" />
<glyph unicode="d" horiz-adv-x="1155" d="M63 451q0 211 123 348t332 137q27 0 83 -15.5t83 -15.5q49 0 66 197q25 295 41 364q43 197 159 197q37 0 62 -47q20 -39 20 -82q0 -66 -52 -236t-52 -278q0 -125 39 -305q41 -203 96 -289q-41 -6 -84 -14q-51 -12 -68 -39q-158 -258 -204 -303q-90 -88 -273 -88 q-111 0 -246 190q-125 177 -125 279zM274 481q0 -59 74 -166q84 -123 170 -122q84 0 180 145q92 137 93 227q0 59 -50 158q-229 -25 -319 -59q-148 -58 -148 -183z" />
<glyph unicode="e" horiz-adv-x="831" d="M27 487q0 150 110 318q131 199 312 199q104 0 172.5 -65t68.5 -169q0 -111 -94 -225.5t-203 -114.5q-16 0 -25.5 9.5t-17.5 9.5q-27 0 -133 -37q35 -109 143 -166q94 -49 218 -49q10 0 28.5 5t28.5 5q33 0 73 -24.5t40 -55.5q0 -29 -95 -57q-76 -23 -104 -23 q-223 0 -365 107q-157 118 -157 333zM229 625q41 -35 78 -35q16 0 99 45q92 51 92 86v100q-4 0 -20.5 6.5t-28.5 6.5q-57 0 -136 -86q-68 -74 -84 -123z" />
<glyph unicode="f" horiz-adv-x="1380" d="M8 938q0 41 58 68q43 20 71 20q14 0 52 -9t57 -9q18 0 26 8q20 63 64 192q135 383 625 383q127 0 245 -73q137 -84 137 -203q0 -41 -29.5 -71t-70.5 -30q-29 0 -72 41q-66 63 -98 80q-76 41 -180 41q-156 0 -269 -102q-58 -52 -99.5 -122t-41.5 -139q0 -34 140 -40 q211 -8 274 -25q152 -39 152 -151q0 -123 -144 -123q-53 0 -160.5 33.5t-158.5 33.5q-10 0 -27.5 3.5t-26.5 3.5q-18 0 -18 -25q0 -39 23 -170q14 -84 28 -170q37 -264 37 -289q0 -94 -94 -94q-88 0 -133 215q-18 84 -45 391q-17 188 -43 188q-2 0 -4 -1q-57 14 -181 51 q-33 4 -63.5 32.5t-30.5 61.5z" />
<glyph unicode="g" horiz-adv-x="1110" d="M86 496q-2 16 -2 31q0 140 131 292q145 170 299 170q37 0 104.5 -38t90.5 -68l-25 -76q-25 -12 -82 -21q-66 -8 -90 -16q-14 6 -29 6q-78 0 -153 -110q-70 -102 -70 -185q0 -109 73 -177t181 -68q176 0 242 370q17 100 16 128q0 25 9.5 39t37.5 24q43 8 86 18 q80 -33 80 -225q0 -84 -53 -500q-59 -469 -98 -530q-51 -80 -105 -105q-33 -14 -106 -14q-98 0 -186.5 76.5t-88.5 175.5q0 109 94 108q14 0 78 -64.5t80 -64.5q94 0 125 201q13 88 13 187q0 25 -1 51q-16 0 -89 -29t-97 -29q-135 0 -207 33q-84 37 -156 145 q-88 134 -102 265z" />
<glyph unicode="h" horiz-adv-x="1116" d="M70 635q29 944 163 944q106 0 107 -164q0 -20 -12 -106l-21 -150q-8 -70 -8 -86q0 -229 12 -332q123 117 142 131q78 59 172 68q13 1 25 1q170 0 288 -236q98 -197 98 -355q0 -180 -12 -258q-33 -203 -137 -203q-55 0 -74 91q-12 59 -12 210v43q0 217 -25 306 q-41 145 -160 145q-63 0 -210 -256q-59 -102 -166 -297h-97q-75 75 -75 405q0 47 2 99z" />
<glyph unicode="i" horiz-adv-x="460" d="M70 459q0 43 49 272q14 10 92 55q90 -78 94 -139l-26 -221q-12 -51 -13 -92q0 -55 44 -122t44 -112q0 -27 -6 -61q-8 -8 -47 -10q-45 -4 -57 -11q-125 57 -150 136q-4 14 -16 188zM195 1456q0 57 112 82q20 4 27 4q68 0 86 -90q2 -37 4 -111v-12q0 -45 -27 -59 q-10 -4 -55 -8q-7 -1 -13 -1q-64 0 -100 56q-27 41 -30 88z" />
<glyph unicode="j" horiz-adv-x="976" d="M27 -80q0 70 69 70q12 0 141.5 -76t194.5 -76q193 0 248 135q29 70 29 283q0 72 -40 237.5t-40 254.5q0 37 36.5 79.5t73.5 42.5q72 0 115 -417q29 -272 29 -422q0 -180 -127 -283q-117 -94 -301 -94q-109 0 -252 67q-176 84 -176 199zM502 1260q0 33 32.5 76.5 t65.5 43.5q18 0 47 -35.5t29 -56.5q0 -35 -29 -63.5t-63 -28.5q-29 0 -55.5 17.5t-26.5 46.5z" />
<glyph unicode="k" horiz-adv-x="1120" d="M68 920q0 231 28 462q41 324 113 324q94 0 94 -176q0 -70 -28.5 -226.5t-28.5 -226.5q0 -150 16 -207q4 -16 17 -16q4 0 118.5 44t173.5 48q14 1 29 1q90 0 215 -32q174 -43 174 -114q0 -31 -47 -81t-76 -50q-16 0 -112.5 34.5t-143.5 36.5q-10 1 -20 1q-142 0 -287 -109 v-43q0 -20 -2 -49q-2 -37 21 -58q45 -47 188 -100q72 -25 215 -78l315 -119q31 -33 31 -67q0 -35 -35 -71t-69 -36q-12 0 -240 101q-256 113 -360 153q-10 8 -19 8q-22 0 -21 -74q0 -17 1 -38q3 -57 2 -95q0 -50 -4 -67q-25 -84 -121 -88q-68 303 -96 534q-16 133 -23 279 q-4 104 -16 141q-2 7 -2 54z" />
<glyph unicode="l" horiz-adv-x="522" d="M86 1237q6 379 136 379h1q88 -2 88 -221q0 -76 -10 -229.5t-10 -229.5q0 -84 8 -131q100 -590 100 -619q-2 -37 -44 -61.5t-64 -24.5q-102 2 -164 557q-41 370 -41 549v31z" />
<glyph unicode="m" horiz-adv-x="1650" d="M53 346q0 137 156 379q166 256 295 256q88 0 178 -135q39 -66 119 -199l168 168q106 88 197 89q6 0 12 -1q150 -10 260 -235q94 -189 94 -354q0 -64 -41 -179q-42 -121 -90 -121h-6q-61 8 -80 174l-33 299q-35 160 -143 160q-88 0 -166 -164q-43 -98 -133 -297 q-66 -144 -128 -144q-5 0 -10 1q-61 12 -81 170q-10 98 -37 295q-25 162 -101 184q-86 -86 -194 -309q-84 -174 -129 -174q-51 0 -84 65q-23 45 -23 72z" />
<glyph unicode="n" horiz-adv-x="1296" d="M78 236q0 16 2 47.5t2 48.5q0 147 43 354q63 307 176 307q57 0 74 -65q6 -35 22 -105q33 35 115 64q66 23 94 22q184 0 475 -542q100 -186 101 -222q0 -70 -35 -122q-41 -61 -109 -62q-53 0 -131 170l-147 318q-96 172 -187 172q-96 0 -145 -150q-27 -92 -84 -276 q-53 -150 -151 -150q-115 1 -115 191z" />
<glyph unicode="o" horiz-adv-x="1208" d="M72 520q0 190 167 350t357 160q184 0 333.5 -145.5t149.5 -329.5q0 -223 -196 -367q-170 -123 -363 -122q-180 0 -314 137t-134 317zM279 514q0 -119 112 -180q86 -47 191 -47q106 0 198 57q119 74 119 203q0 119 -91 197.5t-212 78.5q-6 0 -83 -83t-130 -83 q-31 0 -43 15q-61 -121 -61 -158z" />
<glyph unicode="p" horiz-adv-x="1140" d="M49 246q0 193 92 428q125 319 338 319q197 0 383 -215q174 -203 174 -377q0 -147 -100 -233q-94 -78 -246 -78q-39 0 -140 21.5t-140 21.5q-106 0 -107 -139q0 -45 10.5 -137.5t10.5 -137.5q0 -100 -39 -149q-76 0 -160 45q-76 502 -76 631zM303 465q0 -25 20.5 -66 t41.5 -41q55 0 166.5 -14t166.5 -14q18 0 70.5 23.5t69.5 37.5q-35 117 -140 232q-119 131 -227 131q-68 0 -123 -117q-45 -96 -45 -172z" />
<glyph unicode="q" horiz-adv-x="1255" d="M66 403q0 203 260 390q238 170 424 170q150 0 149 -109q0 -27 -10 -61q20 8 47 8q109 0 127 -75q17 -67 17 -185q0 -13 -1 -27q-1 -92 -1 -146.5t1 -70.5q14 -199 49 -344q23 -92 48.5 -143.5t25.5 -65.5q0 -43 -72 -82q-59 -33 -86 -33q-66 0 -129 213q-78 262 -102 297 q-125 -66 -162 -82q-78 -33 -141 -32q-201 0 -315 88q-129 95 -129 290zM281 420q0 -74 81 -115q68 -35 148 -35q106 0 215 109.5t109 216.5q0 37 -13 70q6 29 6 49q0 37 -24 37q-16 0 -54 -18.5t-49 -18.5q-51 0 -227 -109q-192 -118 -192 -186z" />
<glyph unicode="r" horiz-adv-x="1003" d="M43 539q0 61 6 77q10 29 53 29q16 0 36 -16.5t22 -16.5q100 186 162 242q96 90 266 90q74 0 188 -47q150 -61 174 -147q-23 -23 -80 -23q-45 0 -133 16.5t-131 16.5q-246 0 -287 -365q-18 -164 -22 -174q-20 -51 -90 -123h-62q-35 63 -69 215q-33 146 -33 226z" />
<glyph unicode="s" horiz-adv-x="700" d="M18 20q-2 5 -2 11q0 20 29 47q31 31 57 39h-4h2q8 -2 33 -4q6 0 12 -1q105 0 246 142q6 4 6 14q0 18 -149 204q-152 188 -152 283t78 169q82 78 182 80h5q54 0 97 -45q36 -37 35 -80q0 -10 -1 -21q-8 -39 -56 -39q-16 0 -49 4t-49 4q-53 0 -70 -36q4 -82 154 -252 q156 -176 164 -213q4 -16 4 -33q0 -115 -158 -223q-145 -100 -256 -101q-20 0 -35 4l-69 9q-42 9 -54 38z" />
<glyph unicode="t" horiz-adv-x="1200" d="M-70 1030q0 76 220 107q84 8 249 26q0 45 -3 136.5t-3 136.5q0 229 111 229q29 0 60.5 -30.5t31.5 -59.5v-416q59 -63 265 -90t280 -98q16 -41 16 -76q0 -98 -127 -98q-51 0 -182 27.5t-182 27.5q-66 0 -76 -6q-25 -10 -25 -64q0 -117 31 -364q39 -309 84 -324 q-18 -18 -18 -57q-66 -37 -140 -37t-102 207q-10 72 -27 409q-12 242 -41 289q-13 20 -152 20q-35 0 -77 -1q-53 -2 -82 -3t-18 -1q-41 0 -64 36q-29 70 -29 74z" />
<glyph unicode="u" horiz-adv-x="1101" d="M47 506q0 111 35 225q47 154 133 154q12 0 25 -4q20 -14 43 -29q19 -17 19 -55q0 -7 -1 -15q-2 -29 -37 -120t-35 -121q0 -66 55.5 -146t118.5 -82q18 -1 35 -1q140 0 193 63q18 20 78 170q4 156 10 225q6 57 12 70q10 23 55 22q117 0 152 -125q14 -51 14 -174 q0 -197 -157 -342q-150 -137 -351 -151q-18 -1 -34 -2q-162 0 -263 125q-100 123 -100 313z" />
<glyph unicode="v" horiz-adv-x="960" d="M61 713q0 61 36 110t93 49q4 0 11.5 3.5t11.5 3.5q20 0 63 -72q-1 -25 -1 -45q0 -51 8 -78q20 -76 22 -86q6 -43 46 -124t69 -105q39 33 125 187.5t86 195.5q14 113 55 112q4 0 18.5 -4t20.5 -2q9 1 17 1q57 0 73 -38q9 -20 9 -71q0 -17 -1 -37q-6 -131 -125 -375 q-140 -289 -284 -289h-2q-111 0 -240 301q-111 259 -111 363z" />
<glyph unicode="w" horiz-adv-x="1497" d="M88 662q0 63 25 110q31 59 88 59q63 0 88 -141q8 -47 16 -186q27 -102 74 -172q43 55 121 252q86 213 137 213q29 0 74 -21.5t47 -46.5q6 -131 70.5 -266t160.5 -227q100 94 129 237q14 90 45 270q-20 63 -20 109q0 113 121 113q51 0 82 -80q23 -59 22 -107 q0 -35 -45 -215q-141 -563 -330 -563q-82 0 -200 154q-4 6 -156 227q-51 -104 -113 -205q-86 -143 -151 -143q-115 0 -211 307q-74 236 -74 322z" />
<glyph unicode="x" horiz-adv-x="974" d="M27 891q0 29 28.5 55.5t57.5 26.5q55 -2 157.5 -117t114.5 -176q61 31 178 143q96 92 178 105q15 2 28 2q52 0 75 -39q15 -27 15 -48q0 -66 -154 -194q-125 -103 -126 -156q0 -26 64 -69q90 -61 111 -80q59 -55 59 -117q0 -43 -51 -61q-31 -12 -64 -12q-12 0 -24 2 q-61 8 -164 75q-91 60 -91 67q0 1 1 1q-29 0 -124 -134t-138 -134q-27 0 -57.5 19.5t-30.5 45.5q0 37 95 202t95 177q0 37 -116.5 184.5t-116.5 231.5z" />
<glyph unicode="y" horiz-adv-x="1067" d="M76 987q76 72 110 72q23 0 55.5 -33t37.5 -57q45 -328 260 -586q53 96 98 213q27 74 84 219q98 236 178 236q10 0 23 -4q45 -16 65 -148l-67 -88q-109 -215 -170 -371q-6 -14 -82 -237q-25 -72 -52.5 -221.5t-52.5 -221.5q-48 -140 -115 -140q-5 0 -10 1q-74 10 -82 86 q-2 10 -2 27q0 8 15 78q55 266 55 340q0 29 -6 38q-74 129 -215 391q-128 237 -129 378q1 15 2 28z" />
<glyph unicode="z" horiz-adv-x="976" d="M-29 737q27 61 33 72q18 33 59 61q34 24 283 24q53 0 117 -1q70 -2 162 -25q129 -33 129 -86q0 -14 -13 -32q-37 -57 -192.5 -221t-218.5 -273q39 -31 145 -35q29 -2 154 -4q35 8 104 10h88q57 -8 58 -37q0 -18 -21 -43q-53 -68 -115 -81l-161 -25q-72 -11 -146 -11 q-21 0 -43 1q-43 4 -129 8q-147 4 -147 115q0 119 176 321q164 188 170 207q-16 27 -68 33h-82q-9 1 -22 1q-33 0 -88 -7q-98 -12 -115 -13q-23 -2 -45 -2q-37 6 -72 43z" />
<glyph unicode="{" horiz-adv-x="956" d="M78 768q0 63 101.5 160.5t101.5 169.5q0 33 -28 123t-28 131q0 121 107 264q119 160 252 160q39 0 67.5 -22.5t28.5 -59.5q0 -43 -131 -163t-131 -177q0 -31 55 -145.5t55 -159.5q0 -61 -62.5 -135t-62.5 -76q0 -25 77 -88.5t77 -120.5q0 -37 -54 -153t-54 -138 q0 -106 149 -191l276 -141q150 -78 150 -145q0 -43 -34 -65.5t-79 -22.5q-78 0 -327 139q-283 158 -301 270q-10 61 -11 123q0 35 7.5 106.5t7.5 106.5q0 57 -70 94q-76 41 -92 54q-47 39 -47 102z" />
<glyph unicode="|" horiz-adv-x="518" d="M152 1219q-8 154 0 256q39 172 106 172q31 0 68 -103q47 -131 47 -338q0 -68 -6 -141l82 -1124v-224q0 -33 -32 -70.5t-65 -37.5q-59 0 -90 76q-25 59 -24 127q0 37 6 73q-41 470 -92 1334z" />
<glyph unicode="}" horiz-adv-x="968" d="M6 -119q0 68 158 76q250 14 293 25q158 39 157 178q0 20 -98 181t-98 210q0 45 42 103.5t42 80.5q0 37 -60.5 108.5t-60.5 117.5q0 80 94 114l172 62q94 47 94 149q0 96 -123 199l-227 178q-123 98 -123 166q0 35 39 78t74 43q29 0 166 -90q438 -287 438 -598 q0 -211 -178 -304q-61 -31 -62 -47q0 -16 63.5 -74.5t63.5 -115.5q0 -68 -80.5 -123t-80.5 -92q0 -18 39 -64q47 -53 69 -100q39 -78 39 -174q0 -246 -178 -340q-127 -68 -379 -68q-80 0 -174 29q-121 37 -121 92z" />
<glyph unicode="~" horiz-adv-x="1839" d="M57 590q0 100 66 211q104 174 315 174q182 0 316 -84q63 -53 192 -160q106 -84 240 -84q115 0 284.5 90t186.5 90q45 0 89 -45t44 -90q0 -27 -57 -96q-188 -231 -531 -231q-213 0 -340 84q-57 53 -170 159q-92 84 -227 84q-86 0 -133 -67q-12 -25 -58 -127 q-31 -68 -75 -68q-66 0 -104 47t-38 113z" />
<glyph unicode="&#xa1;" horiz-adv-x="522" d="M66 221q0 20 36 262q35 225 76 391q78 319 154 322q102 4 106 -186l-78 -625v-289q0 -51 -36 -135q-41 -94 -84 -94q-168 -4 -174 354zM197 1686q-2 201 131 204q66 2 112 -73q41 -66 43 -138q2 -68 -34 -135q-43 -78 -107 -78q-90 0 -123 70q-20 48 -22 150z" />
<glyph unicode="&#xa2;" horiz-adv-x="1071" d="M127 713q-2 266 299 385q70 27 94 133l21 182q10 90 53 90q115 0 123 -67q0 -25 -8 -54q-25 -84 -25 -106q0 -47 35 -78q12 -10 82.5 -49t70.5 -113q0 -45 -63 -65q-141 -47 -141 -238q0 -53 16 -143q20 -115 47 -115q47 0 98.5 67.5t96.5 67.5q47 0 64.5 -11t17.5 -52 v-25q0 -119 -129 -209l-140 -69q-29 -18 -28 -109v-69q0 -129 -88 -132q-47 -2 -70 91q-57 227 -178 284q-244 115 -248 404zM332 692q0 -78 39 -119q29 -29 110 -59q2 14 8 90q2 18 5 86q-2 14 -11 39q0 20 -2 31q0 31 6 41q0 23 -47 65q-33 -33 -78 -110q-12 -23 -30 -64z " />
<glyph unicode="&#xa3;" horiz-adv-x="1216" d="M61 96q0 68 84 119q49 27 142 88q49 45 80 160q2 4 18 47q12 37 12 45q0 16 -14 16q-25 0 -77 -12t-79 -12q-61 0 -106 24q-53 31 -53 88q0 39 43 66q35 23 61 23q6 0 32.5 -3.5t33.5 -3.5q74 0 137 25q53 23 67 45v268q0 100 41 217q63 178 185 179q45 0 78.5 -29 t33.5 -70t-45 -67q-55 -31 -67 -60q-39 -96 -39 -282q0 -92 20 -93q-2 0 152 58q29 12 35 12q35 0 62.5 -28.5t27.5 -59.5q0 -53 -99 -108l-151 -70q-53 -29 -66 -57q-2 -4 -6 -23q-10 -47 -35 -139q-4 -10 -37 -90q-31 -72 -30 -80q0 -16 30 -25q20 -2 58 -6 q84 -20 248 -53q61 -2 196 -19q145 -25 146 -108q0 -41 -37 -64.5t-80 -23.5q-117 0 -277 28l-274 58q-80 16 -106 16q-41 0 -110 -39t-122 -39q-35 0 -70 23q-43 24 -43 59z" />
<glyph unicode="&#xa4;" horiz-adv-x="1669" d="M41 1491q0 57 34 96t91 39q86 0 147 -45q29 -20 74 -80q35 -45 64 -45q8 0 63 49q154 137 363 137q174 0 364 -167q102 113 102 114q55 45 142 45q137 0 137 -102q0 -57 -89 -195.5t-89 -148.5q0 72 24 -25q20 -86 43 -227q25 -150 25 -205q0 -152 -117 -315 q143 -102 144 -228q0 -111 -172 -110q-68 0 -135.5 60.5t-86.5 60.5q-14 -8 -82 -47q-229 -133 -516 -134q-119 0 -215 82q-82 -100 -155 -100q-59 0 -98.5 46t-39.5 108q0 68 68 141q74 84 78 96q0 2 -13.5 131t-13.5 150q0 92 35 275t35 161q0 29 -105.5 173t-105.5 210z M498 530q0 -82 92 -143q84 -53 170 -53q188 0 323 186q121 170 121 367q0 172 -84 299q-96 143 -260 143q-133 0 -201 -149q-39 -90 -61 -265l-31 -251q0 -4 -34.5 -68t-34.5 -66z" />
<glyph unicode="&#xa6;" horiz-adv-x="518" d="M152 1460q-2 61 12 103q45 63 112 57q49 -6 78 -76q23 -59 19 -112q-4 -27 -13 -56l35 -454l-10 -91q-2 -16 -41 -25t-59 -7q-43 4 -74 26q-37 27 -33 66q2 14 10 29q-20 190 -36 540zM225 369q-2 68 13 112q45 70 112 64q51 -6 78 -86q23 -63 18 -121q-4 -29 -12 -62 l35 -501l-10 -97q-2 -18 -40 -28t-61 -8q-45 4 -73 30q-37 29 -33 72q2 16 10 31q-21 211 -37 594z" />
<glyph unicode="&#xa8;" horiz-adv-x="831" d="M121 1339q0 86 84 82q78 -4 78 -69q0 -49 -37 -72q-25 -18 -49 -18q-35 0 -56 20q-22 34 -20 57zM516 1374q0 37 27 58q8 4 47 10q12 0 14 -4q76 0 76 -78q0 -55 -84 -74q-80 0 -80 88z" />
<glyph unicode="&#xa9;" horiz-adv-x="1787" d="M82 674q-2 334 166 624q197 340 508 340q313 0 614 -178q350 -203 350 -495q0 -725 -481 -893q-201 -70 -483 -72q-106 0 -285 102q-154 90 -244 183q-143 149 -145 389zM371 770q-4 -479 434 -481q354 -2 518 186q154 178 156 537q0 94 -240 219q-227 119 -338 119 q-223 0 -379 -181q-149 -172 -151 -399zM561 831q-2 147 96.5 256t243.5 109q53 0 139 -45q96 -49 101 -94l-6 -17l-93 21l-73 8l-43 -2q-12 0 -23 -8q-152 0 -193.5 -48t-43.5 -204q-2 -111 129 -178q78 -39 241 -76q133 -29 135 -49l-26 -49l-88 -13q-490 0 -496 389z" />
<glyph unicode="&#xaa;" horiz-adv-x="614" d="M14 1026q0 109 104.5 202t213.5 93q29 0 53.5 -19.5t24.5 -46.5q0 -16 -11 -34q76 -29 76 -91q0 -12 -4 -33.5t-4 -33.5q0 -10 2 -19q12 -29 76.5 -99.5t64.5 -74.5q0 -68 -61 -67q-109 0 -162 102q-25 4 -47 -26q-29 -37 -33 -39q-39 -18 -123 -19q-66 0 -118 72 q-52 65 -52 133zM121 1032q0 -33 28.5 -65.5t61.5 -32.5q84 0 113 92q16 84 30 164q-12 0 -35.5 4t-35.5 4q-41 0 -101.5 -61.5t-60.5 -104.5z" />
<glyph unicode="&#xab;" horiz-adv-x="1705" d="M172 762q0 98 78 184q57 63 209 170q88 63 266 207q80 66 119 66q37 0 69.5 -33t32.5 -70q0 -70 -135 -182q-57 -47 -254 -184q-135 -94 -135 -119q0 -51 249 -238.5t249 -210.5q0 -102 -117 -102q-104 0 -346 207q-53 43 -160 131q-125 106 -125 174zM862 768 q0 98 78 184q57 63 209 170q88 63 266 207q80 66 119 66q37 0 69.5 -33t32.5 -70q0 -70 -135 -182q-57 -47 -254 -184q-135 -94 -135 -119q0 -51 249 -238.5t249 -210.5q0 -102 -117 -102q-104 0 -346 207q-53 43 -160 131q-125 106 -125 174z" />
<glyph unicode="&#xac;" horiz-adv-x="1445" d="M66 954l4 -24q8 -35 80 -39q27 0 51 4q2 0 96 27q25 6 51 20l131 31l269 51q115 23 223 23q184 0 188 -293q2 -147 -41 -303l25 -23q8 -8 45 -14q12 0 33 8l32 20q123 240 123 570v41q0 80 -6 104q-16 53 -72 68l-473 -13q-47 -2 -194 -26q-170 -27 -279 -51 q-203 -45 -262 -88l-16 -43q0 -10 -4 -21q-2 -19 -4 -29z" />
<glyph unicode="&#xad;" horiz-adv-x="1167" d="M90 604q45 74 82 78q16 0 63.5 -15.5t73.5 -25.5q37 -10 68 -14q10 0 20 -2h31q143 0 438 28q25 0 56 -18q72 -43 110 -70q-174 -84 -231 -102q-145 -49 -346 -49q-100 0 -215 43q-146 55 -150 147z" />
<glyph unicode="&#xae;" horiz-adv-x="2066" d="M154 743v236q18 51 77 180q98 195 316 336q274 178 672 180q229 2 487 -182q297 -211 297 -481v-236q0 -18 -37 -106q-92 -221 -221 -342q-160 -150 -287 -224q-170 -100 -348 -100q-369 0 -641 180q-315 209 -315 559zM389 782q-2 -225 252 -413q219 -162 401 -164 q137 -2 318 106q162 96 260 217q143 178 145 379q2 209 -149 373q-199 215 -361 215q-70 0 -149 -57q0 4 -6 4q-18 8 -60 10q-49 2 -96 -10q-47 -4 -141 -37q-109 -25 -283 -266q-129 -181 -131 -357zM713 1270q82 68 258 69q197 2 295 -45q141 -66 143 -237q0 -72 -51 -125 q-29 -29 -96 -72q-57 -35 -58 -61q0 -35 66 -84q109 -80 125 -94q68 -66 67 -140q0 -43 -8 -63h-55q-143 109 -338 282q-39 0 -65.5 -101t-69.5 -103q-25 0 -82 166q-12 51 -51 174q0 106 12 159q8 35 31 123q0 66 -35 84q-68 35 -88 68zM958 1069q0 -49 34 -89t81 -46 q29 0 106.5 69.5t82.5 98.5q0 29 -68 86t-100 61q-66 0 -103 -59q-33 -51 -33 -121z" />
<glyph unicode="&#xaf;" horiz-adv-x="1073" d="M-72 1292q0 53 113 82q86 20 154 19q39 -4 84 -13l675 43l133 -8q25 0 44.5 -37t19.5 -63q0 -49 -37 -80t-86 -27q-23 0 -45 9q-283 -25 -801 -46q-92 -4 -153 9q-103 44 -101 112z" />
<glyph unicode="&#xb0;" horiz-adv-x="743" d="M176 1270q0 127 37 182q47 66 166 66q186 0 186 -181q0 -98 -102 -178q-90 -70 -166 -69q-63 0 -94 61q-27 49 -27 119zM309 1294q0 -10 41 -28q66 66 66 73q0 12 -17.5 25.5t-29.5 13.5q-20 0 -40 -32t-20 -52z" />
<glyph unicode="&#xb1;" horiz-adv-x="1343" d="M135 807q0 57 66 86q51 20 114 20h303q45 63 52 261q4 162 67 161q61 0 62 -159v-82q0 -166 67 -166q37 0 139.5 27.5t147.5 27.5q51 0 92 -27q49 -31 49 -79q0 -66 -176 -117q-76 -20 -229 -62q-49 -23 -55 -118q-2 -70 -7 -142q-12 -106 -59 -106q-49 0 -55 94 q-2 59 -11 172q-10 94 -84 94h-323q-43 0 -98 37q-62 39 -62 78zM223 240q49 74 90 77q16 0 72 -16q49 -14 78 -25q41 -10 76 -14q10 0 22 -2h33q158 0 483 29q27 0 60 -19q80 -43 123 -69q-193 -84 -256 -103q-160 -49 -381 -49q-111 0 -236 43q-160 56 -164 148z" />
<glyph unicode="&#xb2;" horiz-adv-x="696" d="M39 1298q0 23 74 103q57 61 98 96q70 59 119 59q37 0 65 -18l60 -39q68 -43 69 -135q0 -100 -131 -344l-69 -129q0 -10 18 -10l20 4l27 4h62l43 2q39 0 64.5 -32t27.5 -73q0 -8 -44 -22t-114 -21q-25 0 -70 -3t-65.5 -3t-55 -6t-53.5 -6q-23 0 -28 23q-6 35 -6 65v14v17 l225 420q37 66 37 98q0 39 -33 61l-31 21q-45 0 -104 -68l-135 -145q-20 0 -43 23.5t-27 43.5z" />
<glyph unicode="&#xb3;" horiz-adv-x="595" d="M18 1493q0 20 19 31q111 43 211 43h14q66 0 98 -33l54 -57q23 -23 24 -52q0 -96 -47 -151l-61 -74v-8q51 -10 101 -64.5t52 -103.5q0 -113 -99 -199t-212 -86q-33 0 -66.5 31t-33.5 61q-2 14 32 21l66 -4q43 -4 124 59.5t81 104.5q0 29 -49.5 62.5t-79.5 33.5l-80 -31 q-14 -2 -23.5 -4t-21.5 -4q-10 0 -10 2l-23 10q-10 8 -10 47q-2 25 31 46q27 14 53 30q78 45 98 66q63 59 66 151q0 10 -22.5 22.5t-37.5 14.5q-55 0 -98 -10l-96 -27q-27 0 -47 47q-5 7 -7 25z" />
<glyph unicode="&#xb4;" horiz-adv-x="829" d="M86 1268q0 16 57 88q47 57 146 190q4 8 102 189q35 63 82 65q96 2 98 -96q2 -137 -131 -322q-139 -195 -270 -194q-39 0 -64 31q-16 29 -20 49z" />
<glyph unicode="&#xb6;" horiz-adv-x="1511" d="M53 995q0 211 228 426q244 229 534 230q299 0 459 -147.5t160 -438.5q0 -33 -2 -72l-2 -41q0 -201 -21 -368q-14 -102 -41 -308q-4 -63 -16 -190q-43 -406 -217 -405q-41 0 -58 63q-10 39 -16 133l82 565q-115 -14 -117 13q-2 20 -4 22q-6 0 -41 -215q-41 -258 -82 -399 q-61 -215 -131 -215q-125 0 -125 198q35 172 137 609q-74 -8 -225 28q-502 121 -502 512zM328 1030q0 -139 194 -237q39 -20 236 -86h53v608h-137q-88 -43 -176 -84q-170 -101 -170 -201zM1032 694l62 13q106 39 106 198q0 150 -12 201q-29 115 -135 166z" />
<glyph unicode="&#xb7;" horiz-adv-x="567" d="M139 702q-4 158 176 158q123 0 129 -145q0 -23 -2 -31q-6 -90 -36 -117q-39 -33 -125 -35q-53 -2 -99 60q-41 55 -43 110z" />
<glyph unicode="&#xb8;" horiz-adv-x="1005" d="M541 -74l14 123q10 23 51 156q27 90 148 90q43 0 82 -19q45 -25 45 -63q0 -37 -58 -119q-66 -94 -78 -135l33 47q184 -53 199 -59q100 -47 100 -156q0 -129 -119 -201q-98 -57 -237 -57q-117 0 -117 70q0 82 31 102q23 10 106.5 18.5t141.5 38.5q-20 35 -119 43 q-133 12 -160 21q-71 24 -63 100z" />
<glyph unicode="&#xb9;" horiz-adv-x="755" d="M31 762q0 47 47 47q20 0 60 -7t63 -7q92 0 92 120q0 98 -23 256q-8 61 -26 187q-2 2 -8 2q-8 0 -66.5 -46t-79.5 -46q-20 0 -39.5 17.5t-19.5 37.5q0 16 55 72q49 49 74 65q63 45 121 45q45 0 71 -90q18 -66 19 -123v-268q0 -37 6 -106q6 -80 12 -93q14 -29 70 -28 q16 0 48 2t48 2q86 0 86 -47q0 -27 -21.5 -44.5t-46.5 -17.5h-270q25 0 -27.5 8.5t-85.5 12.5q-61 6 -147 6q-12 57 -12 43z" />
<glyph unicode="&#xba;" horiz-adv-x="632" d="M16 1126q0 96 83 176t180 80q92 0 166.5 -72.5t74.5 -164.5q0 -104 -87 -175t-193 -71q-90 0 -157 69.5t-67 157.5zM119 1124q0 -55 51 -86q43 -29 100 -28q61 0 110.5 35.5t49.5 95.5q0 59 -46 98t-105 39q-4 0 -42 -41t-65 -41q-16 0 -22 6q-31 -60 -31 -78z" />
<glyph unicode="&#xbb;" horiz-adv-x="1587" d="M236 1407q0 37 23.5 66.5t59.5 29.5q25 0 121 -98l226 -238q53 -55 231 -221q66 -61 66 -117q0 -109 -279 -340q-217 -180 -340 -180q-37 0 -62.5 26.5t-25.5 63.5q0 35 49 68q33 20 412 313q18 18 18 35q0 23 -104 121q-174 164 -260 254q-135 141 -135 217zM788 1407 q0 37 24 66.5t60 29.5q25 0 121 -98l226 -238q53 -55 231 -221q66 -61 66 -117q0 -109 -279 -340q-217 -180 -340 -180q-37 0 -62.5 26.5t-25.5 63.5q0 35 49 68q33 20 412 313q18 18 18 35q0 23 -104 121q-174 164 -260 254q-136 141 -136 217z" />
<glyph unicode="&#xbc;" horiz-adv-x="1216" d="M141 1550q29 55 76 56q29 0 39 -4q0 -360 86 -627l-84 -25l-47 31q-27 61 -45 405q-7 117 -25 164zM164 293q0 10 37 102q109 272 254 500l231 358q57 92 80 117q59 72 117 72q49 0 85 -53.5t38 -104.5q2 -57 -132 -237q-66 -88 -131 -168q-12 -98 -112 -213 q-147 -170 -213 -334q-23 -92 -45 -178q-14 -55 -86 -56q-59 0 -94 70q-27 55 -29 125zM684 375q-2 29 135 293q45 86 60 86q18 0 55 -15.5t41 -29.5q6 -33 8 -103q0 -25 2 -94l2 -86q0 -4 8 -8l39 -6q12 0 24.5 -29t14.5 -45q0 -8 -20 -10l-49 4q-10 0 -11 -4l4 -74l2 -94 l7 -45q0 -12 -11 -17q-51 0 -69 33q-10 18 -19 82q-10 76 -12 100q0 12 -16 15l-127 -31q-68 0 -68 78zM774 387h17l24 6l47 4q25 0 31 23v12l2 23l-2 12v108q0 18 2 29q0 6 -6 10q-68 0 -94 -131q-7 -33 -21 -96z" />
<glyph unicode="&#xbd;" horiz-adv-x="1286" d="M141 1550q29 55 76 56q29 0 39 -4q0 -360 86 -627l-84 -25l-47 31q-27 61 -45 405q-7 117 -25 164zM164 293q0 10 37 102q109 272 254 500l231 358q57 92 80 117q59 72 117 72q49 0 85 -53.5t38 -104.5q2 -57 -132 -237q-66 -88 -131 -168q-12 -98 -112 -213 q-147 -170 -213 -334q-23 -92 -45 -178q-14 -55 -86 -56q-59 0 -94 70q-27 55 -29 125zM709 479q0 18 59 84q45 49 80 76q55 47 94 47q29 0 53 -14l47 -31q53 -35 56 -109q0 -80 -105 -274l-55 -102q0 -8 12 -9l19 3l20 2h49l35 2q70 4 74 -84q0 -6 -35 -16.5t-92 -16.5 q-18 0 -54 -2t-52.5 -2t-45 -6.5t-43.5 -6.5q-16 0 -22 21q-6 29 -6 51v12l2 13l180 336q29 51 29 79q0 31 -27 50l-25 14q-35 0 -84 -53l-108 -117q-14 0 -32.5 19.5t-22.5 33.5z" />
<glyph unicode="&#xbe;" horiz-adv-x="1329" d="M139 1536q0 16 17 25q33 12 90 20q68 8 90 14q53 0 78 -26l43 -45q16 -18 18 -43q0 -76 -37 -119l-49 -59v-9q41 -8 81 -51t42 -82q0 -90 -80 -158.5t-170 -68.5q-25 0 -52.5 24.5t-27.5 49.5q0 12 27 16l53 -4q33 -2 97.5 48t64.5 83q0 25 -39 50.5t-63 25.5l-64 -23 q-12 -2 -20 -6h-15h-10l-16 8q-10 8 -11 37q0 20 23.5 34.5t46.5 27.5q61 37 76 53q53 47 53 121q0 25 -47 30q-45 0 -78 -10l-78 -20q-20 0 -39 39q-2 4 -4 18zM274 293q0 10 37 102q109 272 254 500l232 358q57 92 80 117q59 72 116 72q49 0 85 -53.5t38 -104.5 q2 -57 -131 -237q-66 -88 -131 -168q-12 -98 -113 -213q-147 -170 -213 -334q-23 -92 -45 -178q-14 -55 -86 -56q-59 0 -94 70q-27 55 -29 125zM795 375q-2 29 135 293q45 86 59 86q18 0 55 -15.5t41 -29.5q6 -33 9 -103q0 -25 2 -94l2 -86q0 -4 8 -8l39 -6q12 0 24.5 -29 t14.5 -45q0 -8 -21 -10l-49 4q-10 0 -10 -4l4 -74l2 -94l6 -45q0 -12 -10 -17q-51 0 -70 33q-10 18 -18 82q-10 76 -12 100q0 12 -17 15l-127 -31q-67 0 -67 78zM885 387h16l25 6l47 4q25 0 31 23v12l2 23l-2 12v108q0 18 2 29q0 6 -7 10q-68 0 -94 -131q-6 -33 -20 -96z " />
<glyph unicode="&#xbf;" horiz-adv-x="1337" d="M156 240q-2 147 125 264q63 57 231 207q125 113 127 213q0 8 -39 96q-18 43 -20 92q-2 82 26.5 108.5t110.5 28.5q43 0 121 -80q92 -96 92 -219q0 -166 -152 -325l-332 -351q0 -76 123 -96q51 -8 179 -10q236 -2 350 74q55 37 116 37q49 0 97.5 -42t50.5 -92 q-29 -45 -45 -71q-174 -211 -590 -211q-217 0 -373 80q-196 100 -198 297zM590 1579q-2 61 62.5 136t125.5 79q29 2 99 -59q80 -70 79 -131q-20 -27 -73 -86q-80 -86 -133 -86q-57 0 -107.5 45t-52.5 102z" />
<glyph unicode="&#xc0;" horiz-adv-x="1374" d="M66 80q0 123 43 237q88 231 184 603q25 98 76 294q51 182 137 291q102 131 254 133t276 -280q139 -313 178 -496l158 -731l-14 -53q-16 -57 -68 -74l-35 -4q-35 0 -49 4l-41 12v95l2 90q4 139 -30 196q-45 76 -174 76q-279 2 -232 2q-131 -4 -209 -43q-98 -51 -141 -168 q-49 -131 -176 -237l-41 -13l-45 -4q-33 0 -47 21q-6 18 -6 49zM475 2238q0 129 98 129q43 0 121 -114q45 -66 74 -123q41 -53 143 -80q74 -20 74 -92q0 -49 -58.5 -102.5t-107.5 -53.5q-344 174 -344 436zM508 776l84 12l51 5l135 -11q86 -6 236 97q-12 90 -80 278 q-80 221 -131 225l-27 2h-14q-82 0 -129 -122q-25 -66 -62 -261q-32 -170 -63 -225z" />
<glyph unicode="&#xc1;" horiz-adv-x="1370" d="M66 80q0 123 43 237q88 231 184 603q25 98 76 294q51 182 137 291q102 131 254 133t276 -280q139 -313 178 -496l158 -731l-14 -53q-16 -57 -68 -74l-35 -4q-35 0 -49 4l-41 12v95l2 90q4 139 -30 196q-45 76 -174 76q-279 2 -232 2q-131 -4 -209 -43q-98 -51 -141 -168 q-49 -131 -176 -237l-41 -13l-45 -4q-33 0 -47 21q-6 18 -6 49zM414 1843q0 16 57 88q47 57 145 191q4 8 103 188q35 63 82 66q96 2 98 -97q2 -137 -131 -321q-139 -195 -270 -195q-39 0 -64 31q-16 29 -20 49zM508 776l84 12l51 5l135 -11q86 -6 236 97q-12 90 -80 278 q-80 221 -131 225l-27 2h-14q-82 0 -129 -122q-25 -66 -62 -261q-32 -170 -63 -225z" />
<glyph unicode="&#xc2;" horiz-adv-x="1384" d="M66 80q0 123 43 237q88 231 184 603q25 98 76 294q51 182 137 291q102 131 254 133t276 -280q139 -313 178 -496l158 -731l-14 -53q-16 -57 -68 -74l-35 -4q-35 0 -49 4l-41 12v95l2 90q4 139 -30 196q-45 76 -174 76q-279 2 -232 2q-131 -4 -209 -43q-98 -51 -141 -168 q-49 -131 -176 -237l-41 -13l-45 -4q-33 0 -47 21q-6 18 -6 49zM326 1864q-2 47 120 221q135 193 242 194q41 0 271.5 -157.5t234.5 -188.5q0 -47 -30.5 -76.5t-78.5 -31.5q-47 -2 -155 65l-230 144q-41 0 -133 -138.5t-133 -140.5q-104 -2 -108 109zM508 776l84 12l51 5 l135 -11q86 -6 236 97q-12 90 -80 278q-80 221 -131 225l-27 2h-14q-82 0 -129 -122q-25 -66 -62 -261q-32 -170 -63 -225z" />
<glyph unicode="&#xc3;" horiz-adv-x="1386" d="M66 80q0 123 43 237q88 231 184 603q25 98 76 294q51 182 137 291q102 131 254 133t276 -280q139 -313 178 -496l158 -731l-14 -53q-16 -57 -68 -74l-35 -4q-35 0 -49 4l-41 12v95l2 90q4 139 -30 196q-45 76 -174 76q-279 2 -232 2q-131 -4 -209 -43q-98 -51 -141 -168 q-49 -131 -176 -237l-41 -13l-45 -4q-33 0 -47 21q-6 18 -6 49zM313 1931q0 61 37 123q59 98 182 98q104 0 210 -81.5t165 -81.5q57 0 143.5 45t92.5 45q33 0 65.5 -32t32.5 -65q0 -37 -74 -104q-100 -92 -252 -92q-106 0 -170 43l-88 80q-45 41 -110 41q-53 0 -84 -65.5 t-49 -65.5q-47 0 -74 32.5t-27 79.5zM508 776l84 12l51 5l135 -11q86 -6 236 97q-12 90 -80 278q-80 221 -131 225l-27 2h-14q-82 0 -129 -122q-25 -66 -62 -261q-32 -170 -63 -225z" />
<glyph unicode="&#xc4;" horiz-adv-x="1400" d="M66 80q0 123 43 237q88 231 184 603q25 98 76 294q51 182 137 291q102 131 254 133t276 -280q139 -313 178 -496l158 -731l-14 -53q-16 -57 -68 -74l-35 -4q-35 0 -49 4l-41 12v95l2 90q4 139 -30 196q-45 76 -174 76q-279 2 -232 2q-131 -4 -209 -43q-98 -51 -141 -168 q-49 -131 -176 -237l-41 -13l-45 -4q-33 0 -47 21q-6 18 -6 49zM401 1888q0 86 84 82q78 -4 78 -69q0 -49 -37 -72q-25 -18 -49 -19q-35 0 -55 21q-23 34 -21 57zM508 776l84 12l51 5l135 -11q86 -6 236 97q-12 90 -80 278q-80 221 -131 225l-27 2h-14q-82 0 -129 -122 q-25 -66 -62 -261q-32 -170 -63 -225zM797 1923q0 37 26 57q8 4 47 11q12 0 15 -4q76 0 76 -78q0 -55 -84 -74q-80 0 -80 88z" />
<glyph unicode="&#xc5;" horiz-adv-x="1382" d="M66 80q0 123 43 237q88 231 184 603q25 98 76 294q51 182 137 291q102 131 254 133t276 -280q139 -313 178 -496l158 -731l-14 -53q-16 -57 -68 -74l-35 -4q-35 0 -49 4l-41 12v95l2 90q4 139 -30 196q-45 76 -174 76q-279 2 -232 2q-131 -4 -209 -43q-98 -51 -141 -168 q-49 -131 -176 -237l-41 -13l-45 -4q-33 0 -47 21q-6 18 -6 49zM508 776l84 12l51 5l135 -11q86 -6 236 97q-12 90 -80 278q-80 221 -131 225l-27 2h-14q-82 0 -129 -122q-25 -66 -62 -261q-32 -170 -63 -225zM565 1925q0 127 37 182q47 66 166 66q186 0 186 -180 q0 -98 -102 -178q-90 -70 -166 -70q-63 0 -94 61q-27 49 -27 119zM698 1950q0 -10 41 -29q66 66 66 74q0 12 -17.5 25.5t-29.5 13.5q-20 0 -40 -32t-20 -52z" />
<glyph unicode="&#xc6;" horiz-adv-x="2154" />
<glyph unicode="&#xc7;" horiz-adv-x="1333" d="M59 868q0 309 207 545q217 246 522 246q135 0 299 -83t234 -194v-57q-92 29 -217 49q-111 18 -158 19q-238 0 -354 -27q-213 -47 -273 -195q-39 -96 -38 -315q0 -260 125 -371q131 -117 749 -252l191 -40q43 -12 43 -46q0 -111 -134 -133q-76 -12 -270 0q-170 12 -207 -8 q184 -53 199 -59q100 -47 100 -156q0 -129 -119 -201q-98 -57 -237 -57q-117 0 -117 70q0 82 31 102q23 10 106.5 18.5t141.5 38.5q-20 35 -101 43q-102 10 -129 21q-66 23 -71 98q-2 27 -2 53q0 39 6 70l4 29q0 8 -35 24q-74 35 -160 90q-336 217 -336 678z" />
<glyph unicode="&#xc8;" horiz-adv-x="1542" d="M76 627v151q27 6 43 28.5t55 33.5q61 14 213 16q0 39 -12 234l-13 194q-12 188 132 287q92 63 323 80q98 6 221 8q238 2 242 -123l-51 -111q-182 -70 -391 -94q-111 -12 -152 -92q-31 -59 -27 -180q10 -317 11 -205q430 119 549 121q104 2 104 -76q0 -37 -33 -121 l-377 -102q-279 -78 -280 -168q-2 -119 41 -193q51 -94 162 -94q96 0 282.5 32t276.5 34q193 4 198 -115l9 -14q6 -6 6 -25q0 -49 -113 -70l-295 -55q-2 0 -170 -20q-68 -8 -94 -8h-59q-37 2 -234 8q-104 4 -137 26q-14 10 -49 52l-33 53l-2 317q0 154 -39 156l-51 -17 q-33 -10 -76 -14q-92 0 -180 66zM516 2238q0 129 98 129q43 0 121 -114q45 -66 74 -123q41 -53 143 -80q74 -20 74 -92q0 -49 -58.5 -102.5t-107.5 -53.5q-344 174 -344 436z" />
<glyph unicode="&#xc9;" horiz-adv-x="1544" d="M76 627v151q27 6 43 28.5t55 33.5q61 14 213 16q0 39 -12 234l-13 194q-12 188 132 287q92 63 323 80q98 6 221 8q238 2 242 -123l-51 -111q-182 -70 -391 -94q-111 -12 -152 -92q-31 -59 -27 -180q10 -317 11 -205q430 119 549 121q104 2 104 -76q0 -37 -33 -121 l-377 -102q-279 -78 -280 -168q-2 -119 41 -193q51 -94 162 -94q96 0 282.5 32t276.5 34q193 4 198 -115l9 -14q6 -6 6 -25q0 -49 -113 -70l-295 -55q-2 0 -170 -20q-68 -8 -94 -8h-59q-37 2 -234 8q-104 4 -137 26q-14 10 -49 52l-33 53l-2 317q0 154 -39 156l-51 -17 q-33 -10 -76 -14q-92 0 -180 66zM475 1843q0 16 57 88q47 57 146 191q4 8 102 188q35 63 82 66q96 2 99 -97q2 -137 -132 -321q-139 -195 -270 -195q-39 0 -63 31q-17 29 -21 49z" />
<glyph unicode="&#xca;" horiz-adv-x="1552" d="M76 627v151q27 6 43 28.5t55 33.5q61 14 213 16q0 39 -12 234l-13 194q-12 188 132 287q92 63 323 80q98 6 221 8q238 2 242 -123l-51 -111q-182 -70 -391 -94q-111 -12 -152 -92q-31 -59 -27 -180q10 -317 11 -205q430 119 549 121q104 2 104 -76q0 -37 -33 -121 l-377 -102q-279 -78 -280 -168q-2 -119 41 -193q51 -94 162 -94q96 0 282.5 32t276.5 34q193 4 198 -115l9 -14q6 -6 6 -25q0 -49 -113 -70l-295 -55q-2 0 -170 -20q-68 -8 -94 -8h-59q-37 2 -234 8q-104 4 -137 26q-14 10 -49 52l-33 53l-2 317q0 154 -39 156l-51 -17 q-33 -10 -76 -14q-92 0 -180 66zM387 1864q-2 47 121 221q135 193 242 194q41 0 271 -157.5t234 -188.5q0 -47 -30.5 -76.5t-77.5 -31.5t-156 65l-229 144q-41 0 -133 -138.5t-133 -140.5q-105 -2 -109 109z" />
<glyph unicode="&#xcb;" horiz-adv-x="1546" d="M76 627v151q27 6 43 28.5t55 33.5q61 14 213 16q0 39 -12 234l-13 194q-12 188 132 287q92 63 323 80q98 6 221 8q238 2 242 -123l-51 -111q-182 -70 -391 -94q-111 -12 -152 -92q-31 -59 -27 -180q10 -317 11 -205q430 119 549 121q104 2 104 -76q0 -37 -33 -121 l-377 -102q-279 -78 -280 -168q-2 -119 41 -193q51 -94 162 -94q96 0 282.5 32t276.5 34q193 4 198 -115l9 -14q6 -6 6 -25q0 -49 -113 -70l-295 -55q-2 0 -170 -20q-68 -8 -94 -8h-59q-37 2 -234 8q-104 4 -137 26q-14 10 -49 52l-33 53l-2 317q0 154 -39 156l-51 -17 q-33 -10 -76 -14q-92 0 -180 66zM463 1888q0 86 84 82q78 -4 78 -69q0 -49 -37 -72q-25 -18 -49 -19q-35 0 -56 21q-22 34 -20 57zM858 1923q0 37 27 57q8 4 47 11q12 0 14 -4q76 0 76 -78q0 -55 -84 -74q-80 0 -80 88z" />
<glyph unicode="&#xcc;" horiz-adv-x="874" d="M41 1442q0 10 20 43l35 59q96 70 281 74q76 2 117 4q78 4 114 16h215q25 -39 25 -63q0 -20 -76 -49q-96 -39 -139 -76q-72 -61 -66 -162l4 -65l11 -262q0 -43 4 -156q6 -84 12 -215q2 -84 20 -187q6 -33 27 -122q68 0 150 -35q63 -27 65 -76q2 -25 -49 -102 q-10 -16 -25.5 -39t-40.5 -29l-81 35q-39 10 -82 14l-207 -12q-150 -8 -215 106q0 84 84 107q37 10 153 10h62q0 88 -7.5 266.5t-7.5 266.5q0 55 -32 329l-17 138q0 72 39 157l-141 -2h-174q-78 0 -78 27zM229 2238q0 129 99 129q43 0 121 -114q45 -66 73 -123 q41 -53 144 -80q74 -20 73 -92q0 -49 -58 -102.5t-108 -53.5q-344 174 -344 436z" />
<glyph unicode="&#xcd;" horiz-adv-x="870" d="M41 1442q0 10 20 43l35 59q96 70 281 74q76 2 117 4q78 4 114 16h215q25 -39 25 -63q0 -20 -76 -49q-96 -39 -139 -76q-72 -61 -66 -162l4 -65l11 -262q0 -43 4 -156q6 -84 12 -215q2 -84 20 -187q6 -33 27 -122q68 0 150 -35q63 -27 65 -76q2 -25 -49 -102 q-10 -16 -25.5 -39t-40.5 -29l-81 35q-39 10 -82 14l-207 -12q-150 -8 -215 106q0 84 84 107q37 10 153 10h62q0 88 -7.5 266.5t-7.5 266.5q0 55 -32 329l-17 138q0 72 39 157l-141 -2h-174q-78 0 -78 27zM168 1843q0 16 57 88q47 57 146 191q4 8 102 188q35 63 82 66 q96 2 98 -97q2 -137 -131 -321q-139 -195 -270 -195q-39 0 -64 31q-16 29 -20 49z" />
<glyph unicode="&#xce;" horiz-adv-x="890" d="M41 1442q0 10 20 43l35 59q96 70 281 74q76 2 117 4q78 4 114 16h215q25 -39 25 -63q0 -20 -76 -49q-96 -39 -139 -76q-72 -61 -66 -162l4 -65l11 -262q0 -43 4 -156q6 -84 12 -215q2 -84 20 -187q6 -33 27 -122q68 0 150 -35q63 -27 65 -76q2 -25 -49 -102 q-10 -16 -25.5 -39t-40.5 -29l-81 35q-39 10 -82 14l-207 -12q-150 -8 -215 106q0 84 84 107q37 10 153 10h62q0 88 -7.5 266.5t-7.5 266.5q0 55 -32 329l-17 138q0 72 39 157l-141 -2h-174q-78 0 -78 27zM80 1864q-2 47 121 221q135 193 241 194q41 0 271.5 -157.5 t234.5 -188.5q0 -47 -30.5 -76.5t-77.5 -31.5t-156 65l-229 144q-41 0 -133.5 -138.5t-133.5 -140.5q-104 -2 -108 109z" />
<glyph unicode="&#xcf;" horiz-adv-x="888" d="M41 1442q0 10 20 43l35 59q96 70 281 74q76 2 117 4q78 4 114 16h215q25 -39 25 -63q0 -20 -76 -49q-96 -39 -139 -76q-72 -61 -66 -162l4 -65l11 -262q0 -43 4 -156q6 -84 12 -215q2 -84 20 -187q6 -33 27 -122q68 0 150 -35q63 -27 65 -76q2 -25 -49 -102 q-10 -16 -25.5 -39t-40.5 -29l-81 35q-39 10 -82 14l-207 -12q-150 -8 -215 106q0 84 84 107q37 10 153 10h62q0 88 -7.5 266.5t-7.5 266.5q0 55 -32 329l-17 138q0 72 39 157l-141 -2h-174q-78 0 -78 27zM156 1888q0 86 84 82q78 -4 77 -69q0 -49 -36 -72q-25 -18 -50 -19 q-35 0 -55 21q-22 34 -20 57zM551 1923q0 37 27 57q8 4 47 11q12 0 14 -4q76 0 76 -78q0 -55 -84 -74q-80 0 -80 88z" />
<glyph unicode="&#xd0;" horiz-adv-x="1536" d="M-244 850q4 -80 133 -135q96 -43 203 -53l2 -50q6 -133 6 -200q0 -100 13 -199l26 -213h379q485 250 615 334q178 115 249 291q59 147 60 383q0 303 -258 430q-145 72 -504 121q-504 72 -541 79l-26 -202q-6 -55 -13 -205l-10 -264q0 -10 -3 -34t-3 -63q-20 2 -12 2 q-33 4 -74 15q-14 4 -80 24q-53 16 -72 17q-41 -4 -90 -78zM340 584l4 86q104 12 195 39q61 18 254 102q-43 27 -121 70q-35 18 -62 18q-90 -8 -254 -22q0 33 2 90q2 47 11 198q8 123 8 199l231 -45q70 -37 231.5 -73t235.5 -77q115 -61 115 -161q-72 -412 -158 -488 l-389 -268l-278 -57q-18 96 -21 198z" />
<glyph unicode="&#xd1;" horiz-adv-x="1693" d="M78 735q0 201 78 387q100 240 274 242q98 2 318 -258q39 -45 266 -342q215 -279 250 -281q10 0 16 29q0 186 -4 352l-8 330q-6 213 41 332l69 73q35 37 86 39q57 2 105 -51q25 -35 78 -104l-29 -465q-25 -158 -31 -217q-12 -121 -12 -199q0 -217 -62 -420 q-37 -123 -141 -125q-72 -2 -190 74l-695 889q-8 8 -24 14q-39 0 -57 -170q-10 -96 -11 -205q0 -367 70 -528l-14 -43q-10 -29 -21 -45q-20 -43 -86 -43q-51 0 -104 47l-50 55l-92 439q-20 98 -20 194zM313 1931q0 61 37 123q59 98 182 98q104 0 210 -81.5t165 -81.5 q57 0 143.5 45t92.5 45q33 0 65.5 -32t32.5 -65q0 -37 -74 -104q-100 -92 -252 -92q-106 0 -170 43l-88 80q-45 41 -110 41q-53 0 -84 -65.5t-49 -65.5q-47 0 -74 32.5t-27 79.5z" />
<glyph unicode="&#xd2;" horiz-adv-x="1472" d="M68 655q0 369 168 650q199 332 542 333q287 2 484 -331q170 -289 172 -596q2 -303 -353 -521q-307 -188 -630 -190q-205 -2 -308 240q-75 177 -75 415zM389 510q0 -59 62 -127l86 -45q35 -18 116 -23l99 9q127 10 245 221q106 188 109 329q2 162 -86 297 q-100 152 -254 152l-41 -4q-156 0 -225 -270q-45 -172 -49 -394q-6 -16 -34 -62t-28 -83zM475 2238q0 129 98 129q43 0 121 -114q45 -66 74 -123q41 -53 143 -80q74 -20 74 -92q0 -49 -58.5 -102.5t-107.5 -53.5q-344 174 -344 436z" />
<glyph unicode="&#xd3;" horiz-adv-x="1472" d="M68 655q0 369 168 650q199 332 542 333q287 2 484 -331q170 -289 172 -596q2 -303 -353 -521q-307 -188 -630 -190q-205 -2 -308 240q-75 177 -75 415zM389 510q0 -59 62 -127l86 -45q35 -18 116 -23l99 9q127 10 245 221q106 188 109 329q2 162 -86 297 q-100 152 -254 152l-41 -4q-156 0 -225 -270q-45 -172 -49 -394q-6 -16 -34 -62t-28 -83zM414 1843q0 16 57 88q47 57 145 191q4 8 103 188q35 63 82 66q96 2 98 -97q2 -137 -131 -321q-139 -195 -270 -195q-39 0 -64 31q-16 29 -20 49z" />
<glyph unicode="&#xd4;" horiz-adv-x="1480" d="M68 655q0 369 168 650q199 332 542 333q287 2 484 -331q170 -289 172 -596q2 -303 -353 -521q-307 -188 -630 -190q-205 -2 -308 240q-75 177 -75 415zM326 1864q-2 47 120 221q135 193 242 194q41 0 271.5 -157.5t234.5 -188.5q0 -47 -30.5 -76.5t-78.5 -31.5 q-47 -2 -155 65l-230 144q-41 0 -133 -138.5t-133 -140.5q-104 -2 -108 109zM389 510q0 -59 62 -127l86 -45q35 -18 116 -23l99 9q127 10 245 221q106 188 109 329q2 162 -86 297q-100 152 -254 152l-41 -4q-156 0 -225 -270q-45 -172 -49 -394q-6 -16 -34 -62t-28 -83z" />
<glyph unicode="&#xd5;" horiz-adv-x="1490" d="M68 655q0 369 168 650q199 332 542 333q287 2 484 -331q170 -289 172 -596q2 -303 -353 -521q-307 -188 -630 -190q-205 -2 -308 240q-75 177 -75 415zM313 1931q0 61 37 123q59 98 182 98q104 0 210 -81.5t165 -81.5q57 0 143.5 45t92.5 45q33 0 65.5 -32t32.5 -65 q0 -37 -74 -104q-100 -92 -252 -92q-106 0 -170 43l-88 80q-45 41 -110 41q-53 0 -84 -65.5t-49 -65.5q-47 0 -74 32.5t-27 79.5zM389 510q0 -59 62 -127l86 -45q35 -18 116 -23l99 9q127 10 245 221q106 188 109 329q2 162 -86 297q-100 152 -254 152l-41 -4 q-156 0 -225 -270q-45 -172 -49 -394q-6 -16 -34 -62t-28 -83z" />
<glyph unicode="&#xd6;" horiz-adv-x="1480" d="M68 655q0 369 168 650q199 332 542 333q287 2 484 -331q170 -289 172 -596q2 -303 -353 -521q-307 -188 -630 -190q-205 -2 -308 240q-75 177 -75 415zM389 510q0 -59 62 -127l86 -45q35 -18 116 -23l99 9q127 10 245 221q106 188 109 329q2 162 -86 297 q-100 152 -254 152l-41 -4q-156 0 -225 -270q-45 -172 -49 -394q-6 -16 -34 -62t-28 -83zM401 1888q0 86 84 82q78 -4 78 -69q0 -49 -37 -72q-25 -18 -49 -19q-35 0 -55 21q-23 34 -21 57zM797 1923q0 37 26 57q8 4 47 11q12 0 15 -4q76 0 76 -78q0 -55 -84 -74 q-80 0 -80 88z" />
<glyph unicode="&#xd7;" horiz-adv-x="747" d="M-10 1096q0 23 22.5 44t44.5 21q45 -2 127 -94t92 -141q47 27 142 114q78 74 143 84q59 10 82 -28q16 -27 12 -47q-12 -55 -119.5 -144.5t-103.5 -130.5q0 -18 51 -53q72 -47 88 -64q47 -43 47 -92q0 -35 -37.5 -49t-72.5 -8q-82 10 -205 115q-20 0 -97 -107.5 t-112 -107.5q-23 0 -46 15t-23 36q0 31 75.5 162t75.5 141q0 31 -93 148.5t-93 185.5z" />
<glyph unicode="&#xd8;" d="M63 868q-12 254 121 549q121 270 297 271l158 -29l276 -47q0 -4 9 -8q47 72 65 94q82 98 154 100q63 4 110 -72q39 -63 39 -133q-2 -59 -112 -227q84 -119 112 -281q25 -141 25 -243q0 -279 -103 -484q-127 -254 -374 -278l-41 -4h-43q-66 0 -191 41q-102 33 -110 39 q-10 -33 -35 -115q-20 -74 -113 -78q-78 -2 -119 92q-29 72 -26 162q0 10 53 141q-102 135 -124.5 279.5t-24.5 185.5zM385 758q0 -10 2 -15v-10q88 168 178 309l226 355q-74 61 -132 65q-152 -12 -223 -270q-49 -170 -51 -385v-49zM547 403q90 -113 168 -114 q141 -4 223 231q74 213 74 443v71q-10 41 -15 80q-20 -25 -63 -78q-20 -133 -154 -293q-141 -168 -233 -340z" />
<glyph unicode="&#xd9;" horiz-adv-x="1521" d="M70 1538q-2 47 45 72q31 10 39 14l57 14l78 -18q37 -12 63 -45l-10 -219l-8 -287q-14 -508 141 -725q84 -119 244 -121q131 -2 213 70q51 45 139 188q135 221 135 568q0 254 -65 479l26 51q16 20 64 25l67 6q53 0 70 -17l33 -32l55 -316l-16 -520q-41 -307 -203 -502 q-184 -223 -475 -223q-338 0 -490 250q-96 160 -159 565zM451 2294q0 141 108 141q45 0 131 -127q57 -84 82 -133q45 -57 158 -88q82 -23 82 -102q0 -53 -63.5 -113t-119.5 -60q-378 193 -378 482z" />
<glyph unicode="&#xda;" horiz-adv-x="1521" d="M70 1538q-2 47 45 72q31 10 39 14l57 14l78 -18q37 -12 63 -45l-10 -219l-8 -287q-14 -508 141 -725q84 -119 244 -121q131 -2 213 70q51 45 139 188q135 221 135 568q0 254 -65 479l26 51q16 20 64 25l67 6q53 0 70 -17l33 -32l55 -316l-16 -520q-41 -307 -203 -502 q-184 -223 -475 -223q-338 0 -490 250q-96 160 -159 565zM391 1862q0 20 62 96q82 100 159 211q4 6 115 207q39 70 90 71q104 4 107 -106q2 -150 -146 -352q-154 -215 -295 -215q-80 0 -92 88z" />
<glyph unicode="&#xdb;" horiz-adv-x="1497" d="M70 1538q-2 47 45 72q31 10 39 14l57 14l78 -18q37 -12 63 -45l-10 -219l-8 -287q-14 -508 141 -725q84 -119 244 -121q131 -2 213 70q51 45 139 188q135 221 135 568q0 254 -65 479l26 51q16 20 64 25l67 6q53 0 70 -17l33 -32l55 -316l-16 -520q-41 -307 -203 -502 q-184 -223 -475 -223q-338 0 -490 250q-96 160 -159 565zM285 1937q-2 51 133 244q147 211 266 213q45 0 298 -174t257 -207q0 -51 -34 -84t-85 -35q-55 -2 -170 72q-39 25 -254 158q-51 0 -146 -151.5t-147 -153.5q-114 -3 -118 118z" />
<glyph unicode="&#xdc;" horiz-adv-x="1497" d="M70 1538q-2 47 45 72q31 10 39 14l57 14l78 -18q37 -12 63 -45l-10 -219l-8 -287q-14 -508 141 -725q84 -119 244 -121q131 -2 213 70q51 45 139 188q135 221 135 568q0 254 -65 479l26 51q16 20 64 25l67 6q53 0 70 -17l33 -32l55 -316l-16 -520q-41 -307 -203 -502 q-184 -223 -475 -223q-338 0 -490 250q-96 160 -159 565zM340 1987q2 63 20 79q29 25 82 19q94 0 95 -82q0 -41 -31 -76t-72 -35q-45 0 -67 25q-27 39 -27 70zM819 2030q0 43 33 69q16 4 57 12q12 0 19 -6q90 0 90 -94q0 -61 -103 -90q-96 0 -96 109z" />
<glyph unicode="&#xdd;" horiz-adv-x="1366" d="M57 123q0 39 43 41q8 0 115 -25l131 -30q43 -6 109 -7q365 0 559 398q76 154 86 268l20 215l-137 -219q-80 -104 -219 -105q-158 0 -254 58.5t-168 197.5q-98 193 -98 369v121q0 117 2 129q12 68 73 94l119 -8q37 -25 58 -78q14 -55 16 -119q2 -43 -12 -137l-13 -84 q0 -106 27 -203q37 -137 113 -145l90 -10q96 0 188 164l180 323q117 172 269 172q53 -23 57 -104q2 -29 -27 -139l-26 -105q0 -252 -104.5 -544t-264.5 -486q-178 -215 -409 -217q-461 -4 -498 108q-25 76 -25 107zM516 1843q0 16 57 88q47 57 146 191q4 8 102 188 q35 63 82 66q96 2 98 -97q2 -137 -131 -321q-139 -195 -270 -195q-39 0 -63 31q-17 29 -21 49z" />
<glyph unicode="&#xe0;" horiz-adv-x="1087" d="M-6 379q0 180 176 338q170 154 352 153q47 0 89 -31.5t42 -76.5q0 -29 -18 -60q125 -47 125 -149q0 -18 -6 -55t-6 -56q0 -20 4 -30q27 -70 135 -179q100 -100 100 -114q0 -47 -29.5 -79t-74.5 -32q-82 0 -156 48t-113 122q-39 6 -77 -45q-47 -61 -56 -65 q-66 -29 -205 -29q-115 0 -204 129q-78 113 -78 211zM170 391q0 -43 37 -96q47 -68 115 -68q139 0 186 154q27 137 51 272q-20 0 -59 7.5t-60 7.5q-70 0 -170 -102.5t-100 -174.5zM213 1483q0 129 98 129q43 0 121 -115q45 -66 74 -123q41 -53 143 -80q74 -20 74 -92 q0 -49 -58.5 -102t-107.5 -53q-344 174 -344 436z" />
<glyph unicode="&#xe1;" horiz-adv-x="1087" d="M-6 379q0 180 176 338q170 154 352 153q47 0 89 -31.5t42 -76.5q0 -29 -18 -60q125 -47 125 -149q0 -18 -6 -55t-6 -56q0 -20 4 -30q27 -70 135 -179q100 -100 100 -114q0 -47 -29.5 -79t-74.5 -32q-82 0 -156 48t-113 122q-39 6 -77 -45q-47 -61 -56 -65 q-66 -29 -205 -29q-115 0 -204 129q-78 113 -78 211zM129 1194q0 16 57 88q47 57 146 191q4 8 102 188q35 63 82 65q96 2 98 -96q2 -137 -131 -321q-139 -195 -270 -195q-39 0 -63 31q-17 29 -21 49zM170 391q0 -43 37 -96q47 -68 115 -68q139 0 186 154q27 137 51 272 q-20 0 -59 7.5t-60 7.5q-70 0 -170 -102.5t-100 -174.5z" />
<glyph unicode="&#xe2;" horiz-adv-x="1087" d="M-6 379q0 180 176 338q170 154 352 153q47 0 89 -31.5t42 -76.5q0 -29 -18 -60q125 -47 125 -149q0 -18 -6 -55t-6 -56q0 -20 4 -30q27 -70 135 -179q100 -100 100 -114q0 -47 -29.5 -79t-74.5 -32q-82 0 -156 48t-113 122q-39 6 -77 -45q-47 -61 -56 -65 q-66 -29 -205 -29q-115 0 -204 129q-78 113 -78 211zM8 1184q0 47 121 221q137 193 242 194q43 0 272 -157.5t234 -188.5q0 -47 -31 -76.5t-78 -31.5t-156 65l-229 144q-41 0 -133 -138.5t-133 -140.5q-103 -2 -109 109zM170 391q0 -43 37 -96q47 -68 115 -68q139 0 186 154 q27 137 51 272q-20 0 -59 7.5t-60 7.5q-70 0 -170 -102.5t-100 -174.5z" />
<glyph unicode="&#xe3;" horiz-adv-x="1087" d="M-6 379q0 180 176 338q170 154 352 153q47 0 89 -31.5t42 -76.5q0 -29 -18 -60q125 -47 125 -149q0 -18 -6 -55t-6 -56q0 -20 4 -30q27 -70 135 -179q100 -100 100 -114q0 -47 -29.5 -79t-74.5 -32q-82 0 -156 48t-113 122q-39 6 -77 -45q-47 -61 -56 -65 q-66 -29 -205 -29q-115 0 -204 129q-78 113 -78 211zM8 1284q0 61 37 123q59 98 182 98q104 0 210 -82t165 -82q57 0 143 45.5t93 45.5q33 0 65.5 -32t32.5 -65q0 -37 -74 -104q-100 -92 -252 -92q-106 0 -170 43l-88 80q-45 41 -110 41q-53 0 -84 -66t-49 -66q-47 0 -74 33 t-27 80zM170 391q0 -43 37 -96q47 -68 115 -68q139 0 186 154q27 137 51 272q-20 0 -59 7.5t-60 7.5q-70 0 -170 -102.5t-100 -174.5z" />
<glyph unicode="&#xe4;" horiz-adv-x="1087" d="M-6 379q0 180 176 338q170 154 352 153q47 0 89 -31.5t42 -76.5q0 -29 -18 -60q125 -47 125 -149q0 -18 -6 -55t-6 -56q0 -20 4 -30q27 -70 135 -179q100 -100 100 -114q0 -47 -29.5 -79t-74.5 -32q-82 0 -156 48t-113 122q-39 6 -77 -45q-47 -61 -56 -65 q-66 -29 -205 -29q-115 0 -204 129q-78 113 -78 211zM98 1266q0 86 84 82q78 -4 78 -70q0 -49 -37 -72q-25 -18 -49 -18q-35 0 -55 20q-23 35 -21 58zM170 391q0 -43 37 -96q47 -68 115 -68q139 0 186 154q27 137 51 272q-20 0 -59 7.5t-60 7.5q-70 0 -170 -102.5 t-100 -174.5zM494 1300q0 37 26 58q8 4 47 10q12 0 15 -4q76 0 75 -78q0 -55 -84 -74q-79 0 -79 88z" />
<glyph unicode="&#xe5;" horiz-adv-x="1087" d="M-6 379q0 180 176 338q170 154 352 153q47 0 89 -31.5t42 -76.5q0 -29 -18 -60q125 -47 125 -149q0 -18 -6 -55t-6 -56q0 -20 4 -30q27 -70 135 -179q100 -100 100 -114q0 -47 -29.5 -79t-74.5 -32q-82 0 -156 48t-113 122q-39 6 -77 -45q-47 -61 -56 -65 q-66 -29 -205 -29q-115 0 -204 129q-78 113 -78 211zM170 391q0 -43 37 -96q47 -68 115 -68q139 0 186 154q27 137 51 272q-20 0 -59 7.5t-60 7.5q-70 0 -170 -102.5t-100 -174.5zM176 1270q0 127 37 182q47 66 166 66q186 0 186 -181q0 -98 -102 -178q-90 -70 -166 -69 q-63 0 -94 61q-27 49 -27 119zM309 1294q0 -10 41 -28q66 66 66 73q0 12 -17.5 25.5t-29.5 13.5q-20 0 -40 -32t-20 -52z" />
<glyph unicode="&#xe6;" horiz-adv-x="1087" />
<glyph unicode="&#xe7;" horiz-adv-x="1003" d="M72 446q0 -184 98 -288q59 -66 156 -101l-11 -63q-10 -59 52 -80q20 -6 127 -16q80 -6 96 -35q-47 -25 -114.5 -32t-84.5 -13q-25 -16 -24 -82q0 -55 92 -55q113 0 190 45q96 57 96 159q0 88 -81 125q-10 6 -158 47v11q61 16 162 53q205 74 250 123v84q-70 33 -93 32 q-27 0 -114.5 -30.5t-114.5 -30.5q-14 0 -33.5 -6t-32.5 -6q8 0 -45 -2h-45q-154 0 -153 168q0 172 116 233l213 62q117 35 117 143q0 25 -27.5 62.5t-50.5 37.5q-211 0 -385 -141q-198 -160 -198 -404zM485 289z" />
<glyph unicode="&#xe8;" horiz-adv-x="829" d="M27 487q0 150 110 318q131 199 312 199q104 0 172.5 -65t68.5 -169q0 -111 -94 -225.5t-203 -114.5q-16 0 -25.5 9.5t-17.5 9.5q-27 0 -133 -37q35 -109 143 -166q94 -49 218 -49q10 0 28.5 5t28.5 5q33 0 73 -24.5t40 -55.5q0 -29 -95 -57q-76 -23 -104 -23 q-223 0 -365 107q-157 118 -157 333zM113 1731q0 129 98 129q43 0 121 -115q45 -66 74 -123q41 -53 143 -80q74 -20 74 -92q0 -49 -58.5 -102.5t-107.5 -53.5q-344 175 -344 437zM229 625q41 -35 78 -35q16 0 99 45q92 51 92 86v100q-4 0 -20.5 6.5t-28.5 6.5 q-57 0 -136 -86q-68 -74 -84 -123z" />
<glyph unicode="&#xe9;" horiz-adv-x="829" d="M27 487q0 150 110 318q131 199 312 199q104 0 172.5 -65t68.5 -169q0 -111 -94 -225.5t-203 -114.5q-16 0 -25.5 9.5t-17.5 9.5q-27 0 -133 -37q35 -109 143 -166q94 -49 218 -49q10 0 28.5 5t28.5 5q33 0 73 -24.5t40 -55.5q0 -29 -95 -57q-76 -23 -104 -23 q-223 0 -365 107q-157 118 -157 333zM86 1268q0 16 57 88q47 57 146 190q4 8 102 189q35 63 82 65q96 2 98 -96q2 -137 -131 -322q-139 -195 -270 -194q-39 0 -64 31q-16 29 -20 49zM229 625q41 -35 78 -35q16 0 99 45q92 51 92 86v100q-4 0 -20.5 6.5t-28.5 6.5 q-57 0 -136 -86q-68 -74 -84 -123z" />
<glyph unicode="&#xea;" horiz-adv-x="831" d="M12 1350q-2 47 121 221q135 193 242 194q41 0 271.5 -157.5t234.5 -188.5q0 -47 -31 -76.5t-78 -31.5t-156 65l-229 144q-41 0 -133 -138.5t-133 -140.5q-105 -2 -109 109zM27 487q0 150 110 318q131 199 312 199q104 0 172.5 -65t68.5 -169q0 -111 -94 -225.5 t-203 -114.5q-16 0 -25.5 9.5t-17.5 9.5q-27 0 -133 -37q35 -109 143 -166q94 -49 218 -49q10 0 28.5 5t28.5 5q33 0 73 -24.5t40 -55.5q0 -29 -95 -57q-76 -23 -104 -23q-223 0 -365 107q-157 118 -157 333zM229 625q41 -35 78 -35q16 0 99 45q92 51 92 86v100 q-4 0 -20.5 6.5t-28.5 6.5q-57 0 -136 -86q-68 -74 -84 -123z" />
<glyph unicode="&#xeb;" horiz-adv-x="831" d="M27 487q0 150 110 318q131 199 312 199q104 0 172.5 -65t68.5 -169q0 -111 -94 -225.5t-203 -114.5q-16 0 -25.5 9.5t-17.5 9.5q-27 0 -133 -37q35 -109 143 -166q94 -49 218 -49q10 0 28.5 5t28.5 5q33 0 73 -24.5t40 -55.5q0 -29 -95 -57q-76 -23 -104 -23 q-223 0 -365 107q-157 118 -157 333zM121 1339q0 86 84 82q78 -4 78 -69q0 -49 -37 -72q-25 -18 -49 -18q-35 0 -56 20q-22 34 -20 57zM229 625q41 -35 78 -35q16 0 99 45q92 51 92 86v100q-4 0 -20.5 6.5t-28.5 6.5q-57 0 -136 -86q-68 -74 -84 -123zM516 1374q0 37 27 58 q8 4 47 10q12 0 14 -4q76 0 76 -78q0 -55 -84 -74q-80 0 -80 88z" />
<glyph unicode="&#xec;" horiz-adv-x="460" d="M70 459q0 43 49 272q14 10 92 55q90 -78 94 -139l-26 -221q-12 -51 -13 -92q0 -55 44 -122t44 -112q0 -27 -6 -61q-8 -8 -47 -10q-45 -4 -57 -11q-125 57 -150 136q-4 14 -16 188zM84 2241q0 129 98 129q43 0 121 -115q45 -66 74 -123q41 -53 143 -80q74 -20 74 -92 q0 -49 -58.5 -102.5t-107.5 -53.5q-344 175 -344 437zM195 1456q0 57 112 82q20 4 27 4q68 0 86 -90q2 -37 4 -111q4 -55 -27 -71q-10 -4 -55 -8q-74 -6 -113 55q-27 41 -30 88z" />
<glyph unicode="&#xed;" horiz-adv-x="462" d="M70 459q0 43 49 272q14 10 92 55q90 -78 94 -139l-26 -221q-12 -51 -13 -92q0 -55 44 -122t44 -112q0 -27 -6 -61q-8 -8 -47 -10q-45 -4 -57 -11q-125 57 -150 136q-4 14 -16 188zM109 1890q0 16 57 88q47 57 145 191q4 8 103 188q35 63 82 66q96 2 98 -96 q2 -137 -131 -322q-139 -195 -270 -195q-39 0 -64 31q-16 29 -20 49zM195 1456q0 57 112 82q20 4 27 4q68 0 86 -90q2 -37 4 -111q4 -55 -27 -71q-10 -4 -55 -8q-74 -6 -113 55q-27 41 -30 88z" />
<glyph unicode="&#xee;" horiz-adv-x="460" d="M-49 1896q-2 47 121 222q135 193 241 194q41 0 271.5 -157.5t234.5 -188.5q0 -47 -30.5 -76.5t-77.5 -31.5t-156 65l-229 143q-41 0 -133.5 -138t-133.5 -140q-104 -3 -108 108zM70 459q0 43 49 272q14 10 92 55q90 -78 94 -139l-26 -221q-12 -51 -13 -92q0 -55 44 -122 t44 -112q0 -27 -6 -61q-8 -8 -47 -10q-45 -4 -57 -11q-125 57 -150 136q-4 14 -16 188zM195 1456q0 57 112 82q20 4 27 4q68 0 86 -90q2 -37 4 -111q4 -55 -27 -71q-10 -4 -55 -8q-74 -6 -113 55q-27 41 -30 88z" />
<glyph unicode="&#xef;" horiz-adv-x="460" d="M70 459q0 43 49 272q14 10 92 55q90 -78 94 -139l-26 -221q-12 -51 -13 -92q0 -55 44 -122t44 -112q0 -27 -6 -61q-8 -8 -47 -10q-45 -4 -57 -11q-125 57 -150 136q-4 14 -16 188zM92 2021q0 86 84 82q78 -4 78 -69q0 -49 -37 -72q-25 -18 -49 -18q-35 0 -55 20 q-23 34 -21 57zM195 1456q0 57 112 82q20 4 27 4q68 0 86 -90q2 -37 4 -111q4 -55 -27 -71q-10 -4 -55 -8q-74 -6 -113 55q-27 41 -30 88zM487 2056q0 37 27 58q8 4 47 10q12 0 14 -4q76 0 76 -78q0 -55 -84 -74q-80 0 -80 88z" />
<glyph unicode="&#xf0;" horiz-adv-x="1155" d="M63 451q0 -102 125 -279q135 -190 246 -190q182 0 273 88q47 45 204 303q16 27 68 39q43 8 84 14q-55 86 -96 289q-39 180 -39 305q0 41 6 92q174 18 256 74q51 33 51 74q0 51 -42 73.5t-95 16.5q-41 -4 -117 -13q45 139 45 197q0 43 -20 82q-25 47 -62 47 q-117 0 -159 -197q-6 -31 -19 -137q-117 4 -166 6q-100 6 -114 -2q-16 -16 -33 -45q-12 -39 12 -69q70 -90 279 -107q-12 -207 -66 -207q-27 0 -83 15.5t-83 15.5q-209 0 -332 -137t-123 -348zM274 481q0 125 148 183q90 35 319 59q49 -98 50 -158q0 -90 -93 -227 q-96 -145 -180 -145q-86 0 -170 122q-74 107 -74 166z" />
<glyph unicode="&#xf1;" horiz-adv-x="1296" d="M78 236q0 16 2 47.5t2 48.5q0 147 43 354q63 307 176 307q57 0 74 -65q6 -35 22 -105q33 35 115 64q66 23 94 22q184 0 475 -542q100 -186 101 -222q0 -70 -35 -122q-41 -61 -109 -62q-53 0 -131 170l-147 318q-96 172 -187 172q-96 0 -145 -150q-27 -92 -84 -276 q-53 -150 -151 -150q-115 1 -115 191zM109 1561q0 61 36 122q59 98 183 99q104 0 209.5 -82t164.5 -82q57 0 143.5 45t92.5 45q33 0 65.5 -31.5t32.5 -64.5q0 -37 -73 -105q-100 -92 -252 -92q-106 0 -170 43l-88 80q-45 41 -111 41q-53 0 -84 -65.5t-49 -65.5 q-47 0 -73.5 33t-26.5 80z" />
<glyph unicode="&#xf2;" horiz-adv-x="1208" d="M72 520q0 190 167 350t357 160q184 0 333.5 -145.5t149.5 -329.5q0 -223 -196 -367q-170 -123 -363 -122q-180 0 -314 137t-134 317zM279 514q0 -119 112 -180q86 -47 191 -47q106 0 198 57q119 74 119 203q0 119 -91 197.5t-212 78.5q-6 0 -83 -83t-130 -83 q-31 0 -43 15q-61 -121 -61 -158zM348 1778q0 129 98 129q43 0 121 -115q45 -66 74 -123q41 -53 143 -80q74 -20 74 -92q0 -49 -58.5 -102.5t-107.5 -53.5q-344 175 -344 437z" />
<glyph unicode="&#xf3;" horiz-adv-x="1210" d="M72 520q0 190 167 350t357 160q184 0 333.5 -145.5t149.5 -329.5q0 -223 -196 -367q-170 -123 -363 -122q-180 0 -314 137t-134 317zM244 1323q0 16 57 88q47 57 145 191q4 8 103 188q35 63 82 65q96 2 98 -96q2 -137 -131 -321q-139 -195 -270 -195q-39 0 -64 31 q-16 29 -20 49zM279 514q0 -119 112 -180q86 -47 191 -47q106 0 198 57q119 74 119 203q0 119 -91 197.5t-212 78.5q-6 0 -83 -83t-130 -83q-31 0 -43 15q-61 -121 -61 -158z" />
<glyph unicode="&#xf4;" horiz-adv-x="1210" d="M72 520q0 190 167 350t357 160q184 0 333.5 -145.5t149.5 -329.5q0 -223 -196 -367q-170 -123 -363 -122q-180 0 -314 137t-134 317zM145 1407q-2 47 121 221q135 193 242 195q41 0 271.5 -158t234.5 -188q0 -47 -31 -77t-78 -32t-155 66l-230 143q-41 0 -133 -138.5 t-133 -140.5q-105 -2 -109 109zM279 514q0 -119 112 -180q86 -47 191 -47q106 0 198 57q119 74 119 203q0 119 -91 197.5t-212 78.5q-6 0 -83 -83t-130 -83q-31 0 -43 15q-61 -121 -61 -158z" />
<glyph unicode="&#xf5;" horiz-adv-x="1210" d="M72 520q0 190 167 350t357 160q184 0 333.5 -145.5t149.5 -329.5q0 -223 -196 -367q-170 -123 -363 -122q-180 0 -314 137t-134 317zM125 1499q0 61 37 123q59 98 182 98q104 0 209.5 -82t165.5 -82q57 0 143 45.5t92 45.5q33 0 66 -32t33 -65q0 -37 -74 -104 q-100 -92 -252 -92q-106 0 -170 43l-88 80q-45 41 -111 41q-53 0 -83.5 -66t-49.5 -66q-47 0 -73.5 33t-26.5 80zM279 514q0 -119 112 -180q86 -47 191 -47q106 0 198 57q119 74 119 203q0 119 -91 197.5t-212 78.5q-6 0 -83 -83t-130 -83q-31 0 -43 15q-61 -121 -61 -158z " />
<glyph unicode="&#xf6;" horiz-adv-x="1208" d="M72 520q0 190 167 350t357 160q184 0 333.5 -145.5t149.5 -329.5q0 -223 -196 -367q-170 -123 -363 -122q-180 0 -314 137t-134 317zM279 514q0 -119 112 -180q86 -47 191 -47q106 0 198 57q119 74 119 203q0 119 -91 197.5t-212 78.5q-6 0 -83 -83t-130 -83 q-31 0 -43 15q-61 -121 -61 -158zM319 1450q0 86 84 82q78 -4 78 -70q0 -49 -37 -71q-25 -18 -49 -19q-35 0 -55 21q-23 34 -21 57zM715 1485q0 37 26 57q8 4 47 10q12 0 15 -4q76 0 76 -78q0 -55 -84 -73q-80 0 -80 88z" />
<glyph unicode="&#xf7;" horiz-adv-x="1294" d="M57 645q53 74 99 78q20 0 75.5 -15.5t87.5 -25.5q45 -10 82 -14q12 0 25 -2h37q172 0 526 28q29 0 66 -18q86 -43 133 -70q-209 -84 -279 -102q-174 -49 -413 -49q-123 0 -258 43q-177 55 -181 147zM403 977q0 63 49.5 106t112.5 45q94 2 128 -35.5t36 -134.5 q4 -152 -145 -155q-70 -2 -125.5 50t-55.5 124zM459 178q-4 158 176 158q125 0 129 -146q2 -23 -2 -30q-6 -90 -37 -117q-37 -33 -125 -35q-53 -2 -96 55.5t-45 114.5z" />
<glyph unicode="&#xf8;" horiz-adv-x="1208" d="M72 520q0 -176 135 -315q4 -6 12 -17q-41 -102 -41 -116q2 -70 29 -125q35 -70 94 -70q72 0 86 55q10 37 37 144q41 -10 96 -10q193 0 363 122q197 143 196 367q0 172 -149 328q90 133 90 180q-2 51 -38 103.5t-85 52.5q-57 0 -117 -70q-37 -43 -86 -129q-45 10 -98 10 q-190 0 -357 -160t-167 -350zM279 514q0 37 61 158q12 -14 43 -15q59 0 125 76l-195 -332q-34 52 -34 113zM528 289q35 51 117 155q100 115 113 213q39 47 61 76q80 -82 80 -186q0 -129 -119 -203q-92 -57 -198 -57q-40 0 -54 2z" />
<glyph unicode="&#xf9;" horiz-adv-x="1101" d="M47 506q0 111 35 225q47 154 133 154q12 0 25 -4q20 -14 43 -29q23 -20 18 -70q-2 -29 -37 -120t-35 -121q0 -66 55.5 -146t118.5 -82q168 -8 228 62q18 20 78 170q4 156 10 225q6 57 12 70q10 23 55 22q117 0 152 -125q14 -51 14 -174q0 -197 -157 -342 q-150 -137 -351 -151q-186 -14 -297 123q-100 123 -100 313zM258 1710q0 141 109 141q45 0 131 -127q57 -84 82 -133q45 -57 157 -88q82 -23 82 -102q0 -53 -63.5 -112.5t-118.5 -59.5q-379 192 -379 481z" />
<glyph unicode="&#xfa;" horiz-adv-x="1101" d="M47 506q0 111 35 225q47 154 133 154q12 0 25 -4q20 -14 43 -29q23 -20 18 -70q-2 -29 -37 -120t-35 -121q0 -66 55.5 -146t118.5 -82q168 -8 228 62q18 20 78 170q4 156 10 225q6 57 12 70q10 23 55 22q117 0 152 -125q14 -51 14 -174q0 -197 -157 -342 q-150 -137 -351 -151q-186 -14 -297 123q-100 123 -100 313zM279 1335q0 20 61 97q82 100 160 210q4 6 114 207q39 70 91 72q104 4 106 -106q2 -150 -145 -353q-154 -215 -295 -215q-80 0 -92 88z" />
<glyph unicode="&#xfb;" horiz-adv-x="1101" d="M47 506q0 111 35 225q47 154 133 154q12 0 25 -4q20 -14 43 -29q23 -20 18 -70q-2 -29 -37 -120t-35 -121q0 -66 55.5 -146t118.5 -82q168 -8 228 62q18 20 78 170q4 156 10 225q6 57 12 70q10 23 55 22q117 0 152 -125q14 -51 14 -174q0 -197 -157 -342 q-150 -137 -351 -151q-186 -14 -297 123q-100 123 -100 313zM51 1311q-2 51 133 243q147 211 267 213q45 0 297.5 -174t257.5 -207q0 -51 -34 -83.5t-85 -34.5q-55 -2 -170 71q-39 25 -254 158q-51 0 -146.5 -151.5t-146.5 -153.5q-115 -2 -119 119z" />
<glyph unicode="&#xfc;" horiz-adv-x="1103" d="M47 506q0 111 35 225q47 154 133 154q12 0 25 -4q20 -14 43 -29q23 -20 18 -70q-2 -29 -37 -120t-35 -121q0 -66 55.5 -146t118.5 -82q168 -8 228 62q18 20 78 170q4 156 10 225q6 57 12 70q10 23 55 22q117 0 152 -125q14 -51 14 -174q0 -197 -157 -342 q-150 -137 -351 -151q-186 -14 -297 123q-100 123 -100 313zM143 1427q2 63 21 80q29 25 82 19q94 0 94 -82q0 -41 -30.5 -76t-71.5 -35q-45 0 -68 25q-27 38 -27 69zM623 1470q0 43 32 70q16 4 58 12q12 0 18 -6q90 0 90 -94q0 -61 -102 -90q-96 -1 -96 108z" />
<glyph unicode="&#xfd;" horiz-adv-x="1069" d="M76 987q76 72 110 72q23 0 55.5 -33t37.5 -57q45 -328 260 -586q53 96 98 213q27 74 84 219q98 236 178 236q10 0 23 -4q45 -16 65 -148l-67 -88q-109 -215 -170 -371q-6 -14 -82 -237q-25 -72 -52.5 -221.5t-52.5 -221.5q-51 -150 -125 -139q-74 10 -82 86q-2 10 -2 27 q0 8 15 78q55 266 55 340q0 29 -6 38q-74 129 -215 390.5t-127 406.5zM281 1550q0 16 57 88q47 57 145 191q4 8 103 188q35 63 82 66q96 2 98 -96q2 -137 -131 -322q-139 -195 -270 -195q-39 0 -64 31q-16 29 -20 49z" />
<glyph unicode="&#xff;" horiz-adv-x="1067" d="M76 987q76 72 110 72q23 0 55.5 -33t37.5 -57q45 -328 260 -586q53 96 98 213q27 74 84 219q98 236 178 236q10 0 23 -4q45 -16 65 -148l-67 -88q-109 -215 -170 -371q-6 -14 -82 -237q-25 -72 -52.5 -221.5t-52.5 -221.5q-51 -150 -125 -139q-74 10 -82 86q-2 10 -2 27 q0 8 15 78q55 266 55 340q0 29 -6 38q-74 129 -215 390.5t-127 406.5zM164 1503q2 63 20 80q29 25 82 19q94 0 94 -82q0 -41 -30.5 -76t-71.5 -35q-45 0 -68 25q-26 38 -26 69zM643 1546q0 43 33 70q16 4 57 12q12 0 19 -6q90 0 90 -94q0 -61 -103 -90q-96 -1 -96 108z" />
<glyph unicode="&#x152;" horiz-adv-x="3225" d="M1643 627v151q27 6 43 28.5t55 33.5q61 14 213 16q0 39 -12 234l-13 194q-1 15 0 29q0 167 132 258q92 63 323 80q98 6 221 8h8q230 0 234 -123l-51 -111q-182 -70 -391 -94q-111 -12 -152 -92q-27 -52 -27 -153v-27q8 -234 10 -234q1 0 1 29q430 119 549 121h5 q99 0 99 -76q0 -37 -33 -121l-377 -102q-279 -78 -280 -168v-11q0 -111 41 -182q51 -94 162 -94q96 0 282.5 32t276.5 34h12q180 0 186 -115l9 -14q6 -6 6 -25q0 -49 -113 -70l-295 -55q-2 0 -170 -20q-68 -8 -94 -8h-59q-37 2 -234 8q-104 4 -137 26q-16 16 -49 52l-33 53 l-2 317q0 154 -39 156l-51 -17q-33 -10 -76 -14q-92 0 -180 66zM68 655q0 369 168 650q199 332 542 333h4q284 0 480 -331q172 -292 172 -600q0 -301 -353 -517q-307 -188 -630 -190h-4q-202 0 -304 240q-75 177 -75 415zM389 510q0 -59 62 -127l86 -45q35 -18 116 -23l99 9 q127 10 245 221q109 192 109 337q0 158 -86 289q-100 152 -254 152l-41 -4q-156 0 -225 -270q-45 -172 -49 -394q-6 -16 -34 -62t-28 -83z" />
<glyph unicode="&#x153;" horiz-adv-x="2039" d="M1235 487q0 150 110 318q131 199 312 199q104 0 172.5 -65t68.5 -169q0 -111 -94 -225.5t-203 -114.5q-16 0 -25.5 9.5t-17.5 9.5q-27 0 -133 -37q35 -109 143 -166q94 -49 218 -49q10 0 28.5 5t28.5 5q33 0 73 -24.5t40 -55.5q0 -29 -95 -57q-76 -23 -104 -23 q-223 0 -365 107q-157 118 -157 333zM1437 625q41 -35 78 -35q16 0 99 45q92 51 92 86v100q-4 0 -20.5 6.5t-28.5 6.5q-57 0 -136 -86q-68 -74 -84 -123zM72 520q0 190 167 350t357 160q184 0 333.5 -145.5t149.5 -329.5q0 -223 -196 -367q-170 -123 -363 -122 q-180 0 -314 137t-134 317zM279 514q0 -119 112 -180q86 -47 191 -47q106 0 198 57q119 74 119 203q0 119 -91 197.5t-212 78.5q-6 0 -83 -83t-130 -83q-31 0 -43 15q-61 -121 -61 -158z" />
<glyph unicode="&#x178;" horiz-adv-x="1366" d="M57 123q0 39 43 41q8 0 115 -25l131 -30q43 -6 109 -7q365 0 559 398q76 154 86 268l20 215l-137 -219q-80 -104 -219 -105q-158 0 -254 58.5t-168 197.5q-98 193 -98 369v121q0 117 2 129q12 68 73 94l119 -8q37 -25 58 -78q14 -55 16 -119q2 -43 -12 -137l-13 -84 q0 -106 27 -203q37 -137 113 -145l90 -10q96 0 188 164l180 323q117 172 269 172q53 -23 57 -104q2 -29 -27 -139l-26 -105q0 -252 -104.5 -544t-264.5 -486q-178 -215 -409 -217q-461 -4 -498 108q-25 76 -25 107zM442 1884q2 63 21 80q29 25 82 18q94 0 94 -81 q0 -41 -30.5 -76t-71.5 -35q-45 0 -68 25q-27 38 -27 69zM922 1927q0 43 32 70q16 4 58 12q12 0 18 -6q90 0 90 -94q0 -61 -102 -90q-96 -1 -96 108z" />
<glyph unicode="&#x2c6;" horiz-adv-x="933" d="M39 1311q-2 47 121 221q135 193 241 194q41 0 271.5 -157.5t234.5 -188.5q0 -47 -30.5 -76.5t-77.5 -31.5t-156 65l-229 144q-41 0 -133.5 -138.5t-133.5 -140.5q-104 -2 -108 109z" />
<glyph unicode="&#x2dc;" horiz-adv-x="1101" d="M109 1296q0 61 36 123q59 98 183 99q104 0 209.5 -82t164.5 -82q57 0 143.5 45t92.5 45q33 0 65.5 -32t32.5 -64q0 -37 -73 -105q-100 -92 -252 -92q-106 0 -170 43l-88 80q-45 41 -111 41q-53 0 -84 -65.5t-49 -65.5q-47 0 -73.5 32.5t-26.5 79.5z" />
<glyph unicode="&#x2000;" horiz-adv-x="1222" />
<glyph unicode="&#x2001;" horiz-adv-x="2447" />
<glyph unicode="&#x2002;" horiz-adv-x="1222" />
<glyph unicode="&#x2003;" horiz-adv-x="2447" />
<glyph unicode="&#x2004;" horiz-adv-x="815" />
<glyph unicode="&#x2005;" horiz-adv-x="610" />
<glyph unicode="&#x2006;" horiz-adv-x="407" />
<glyph unicode="&#x2007;" horiz-adv-x="407" />
<glyph unicode="&#x2008;" horiz-adv-x="305" />
<glyph unicode="&#x2009;" horiz-adv-x="489" />
<glyph unicode="&#x200a;" horiz-adv-x="135" />
<glyph unicode="&#x2010;" horiz-adv-x="1167" d="M90 604q45 74 82 78q16 0 63.5 -15.5t73.5 -25.5q37 -10 68 -14q10 0 20 -2h31q143 0 438 28q25 0 56 -18q72 -43 110 -70q-174 -84 -231 -102q-145 -49 -346 -49q-100 0 -215 43q-146 55 -150 147z" />
<glyph unicode="&#x2011;" horiz-adv-x="1167" d="M90 604q45 74 82 78q16 0 63.5 -15.5t73.5 -25.5q37 -10 68 -14q10 0 20 -2h31q143 0 438 28q25 0 56 -18q72 -43 110 -70q-174 -84 -231 -102q-145 -49 -346 -49q-100 0 -215 43q-146 55 -150 147z" />
<glyph unicode="&#x2012;" horiz-adv-x="1167" d="M90 604q45 74 82 78q16 0 63.5 -15.5t73.5 -25.5q37 -10 68 -14q10 0 20 -2h31q143 0 438 28q25 0 56 -18q72 -43 110 -70q-174 -84 -231 -102q-145 -49 -346 -49q-100 0 -215 43q-146 55 -150 147z" />
<glyph unicode="&#x2013;" horiz-adv-x="1173" d="M80 514q0 51 86 80q68 25 127 18q33 -2 67 -10l541 43l107 -8q20 -2 35.5 -39t15.5 -61q0 -45 -27.5 -78t-70.5 -29q-18 0 -37 8q-225 -25 -641 -45q-72 -4 -123 8q-82 45 -80 113z" />
<glyph unicode="&#x2014;" horiz-adv-x="2265" d="M63 522q-2 80 314 103q139 10 334 10h143q88 0 129 -2l920 41q39 2 133 -29q117 -37 116 -80q0 -121 -555 -149q-119 -6 -651 -6h-610q-53 0 -146 28q-125 39 -127 84z" />
<glyph unicode="&#x2018;" horiz-adv-x="671" d="M147 1628q0 27 23 43.5t49 16.5q72 -2 201 -211q121 -195 121 -252q-4 -43 -9 -51q-8 -25 -38 -25q-68 2 -91 65q-43 121 -67 158q-16 25 -117 127q-74 76 -72 129z" />
<glyph unicode="&#x2019;" horiz-adv-x="612" d="M115 1143q2 20 149 272q88 152 121 189q47 53 78 51q59 -2 57 -82q-2 -70 -137 -285t-190 -215q-78 0 -78 70z" />
<glyph unicode="&#x201a;" horiz-adv-x="874" d="M37 580q10 10 55 204q53 229 53 367q72 92 150 92q23 0 135 -190q27 0 105 -17q111 -23 165 -53q86 -47 86 -127q0 -92 -86 -119l-116 -20q66 -72 65 -80q0 -25 -55 -27h-121v-10q0 -47 70.5 -107.5t70.5 -68.5q0 -6 -45 -37l72 -156q-2 -14 -6 -28q-2 -4 -10 -19 q35 -31 34 -59q0 -35 -59 -35q-2 -51 -59.5 -64.5t-57.5 -50.5q0 -35 27 -34q57 0 57 30v66q16 6 17 -68q55 -12 67 -16q39 -14 39 -43q0 -66 -149 -66q-96 20 -97 56q0 10 23 41v63q-4 0 -12.5 3t-12.5 3q-170 -47 -178 -67l2 -19q74 -14 78 -14q49 -16 49 -49 q0 -53 -135 -51q-127 0 -127 45l14 18q12 20 13 43q0 18 -27 73.5t-27 94.5q0 25 9 53q-39 23 -39 39q43 106 43 113q0 6 -15 26l158 238q-2 53 -16 158q-2 8 -8 14q-55 16 -56 51q0 14 21.5 33.5t21.5 32.5q0 12 -24.5 105t-32.5 112l-100 -434q4 -16 12 -27q16 -16 16 -18 q-14 6 -28 4q6 -8 18 -29q-14 0 -23 2q-12 -16 -16 -25q0 32 -8 48zM96 172q16 -8 21 -8q4 0 28.5 13t28.5 16q0 8 -6 26q-12 -6 -39 -16l-6 12q-4 8 -8 10q-5 -8 -19 -53zM123 88l20 -74q18 -27 107 -26q117 0 143 26q14 14 15 88h16q10 -20 10 -43q0 -12 -4 -24 q10 -2 29 -4q104 0 125 63v68l-25 2q-29 -20 -113 -31q-96 -10 -124 -20q10 -25 10 -43q0 -39 -41 -39q-12 0 -43 22q-16 -35 -37 -35q-12 0 -27 19q-23 29 -59 57v-2q-2 -2 -2 -4zM127 315q72 -20 94 -20q119 0 119 35q0 10 -5 27.5t-5 25.5q14 2 61 39q-6 0 58 -45 q20 18 67 67q-18 35 -49 84q-45 -27 -88 -26q-47 0 -105 24zM135 121q12 -6 29 -6q14 0 31 6l2 -27q-2 -6 -2 -12q0 -18 16 -35q8 25 41 64l16 -31q6 -14 31 -23q4 6 6 21q-4 14 -20 41v26h65v15q-25 18 -90 18q-8 29 -10 55q0 4 2 16.5t2 18.5h-57q-4 -14 -4 -28 q0 -4 4 -37q4 -25 0 -31q-12 -4 -25 -6q-25 -8 -37 -45zM160 -147q39 -23 106 -23q109 0 109 31q0 37 -78 37q-106 0 -137 -45zM178 1122q8 -23 31 -137q6 -33 41 -33q66 0 112 41q37 31 37 49q0 25 -32.5 81.5t-55.5 64.5q-29 -35 -75 -47q-33 -9 -58 -19zM180 -37v-51 q20 -8 31 -8q39 0 39 47q0 6 -6 10h-37q-23 2 -27 2zM188 1153h13q18 8 39 14q12 6 55 41v9l-19 2l-53 -21q-16 -16 -35 -33v-12zM207 776q0 -20 20 -22l41 -4q-12 -37 -12 -76q0 -141 117 -142q84 0 84 35q0 31 -25 39l-2 -14h-22q-8 25 -9 29q0 18 25 30q14 -20 29 -20 h172q-6 20 -30 45.5t-28 36.5q-27 0 -61 12q-43 14 -49 33l26 2q20 -10 66 -21q215 0 215 117q0 94 -117 127l-196 49l-21 -2q-39 -96 -197 -108q10 -49 11 -115q-37 -15 -37 -31zM281 211q33 -4 79 -18q20 -41 66 -41q35 0 109 24q82 29 81 53q0 33 -24 58q-14 -39 -33 -39 q-8 0 -10 4q-8 12 -31 27q-33 -61 -53 -62q-4 0 -27.5 19.5t-34.5 23.5q-31 -63 -59 -63q-4 0 -28.5 20.5t-34.5 24.5v-31zM297 874q-4 14 8 17q12 4 17.5 -3t5.5 -11q0 -6 -9 -11q-18 -12 -22 8zM385 920q-6 14 4 20q12 8 19.5 -3t3.5 -17q-2 -6 -13 -7q-10 1 -14 7z M473 -92v-14q53 -25 94 -25q98 0 99 37q0 18 -21.5 30.5t-42.5 12.5zM520 483q35 -74 49 -73q0 2 17 12q-11 20 -66 61zM604 170q0 -12 8 -57q25 10 25 20q0 27 -33 37z" />
<glyph unicode="&#x201c;" horiz-adv-x="909" d="M143 1573q-2 80 58 82q31 2 78 -51q31 -35 120 -189l121 -205q25 -43 29 -67q0 -70 -78 -70q-55 0 -190.5 215t-137.5 285zM604 1470q0 41 58 48q31 0 131 -120t106 -157q0 -27 -34 -45t-64 -20q-23 -2 -105 98q-92 112 -92 196z" />
<glyph unicode="&#x201d;" horiz-adv-x="954" d="M176 1225q0 57 121 252q129 209 201 211q27 0 49 -16.5t22 -43.5q2 -53 -71 -129q-100 -102 -117 -127q-25 -37 -68 -158q-23 -63 -90 -65q-31 0 -39 25q-4 8 -8 51zM508 1145q0 41 113.5 196.5t144.5 155.5q18 0 41.5 -23.5t28.5 -43.5q0 -33 -78 -136 q-156 -205 -209 -207q-33 1 -41 58z" />
<glyph unicode="&#x201e;" horiz-adv-x="1032" d="M57 227q0 49 76 64q23 4 82 10q8 6 11 29.5t12 48.5q20 55 75.5 115.5t77.5 117.5q-20 14 -39 19q-20 -35 -69 -33l2 55l-4 -47q-14 0 -41 2q-8 10 -19 23q2 8 10 33q-12 -4 -12 -41q-35 2 -35 55q0 37 37 66.5t74 29.5q35 0 80 -20l67 -31q8 16 19.5 72.5t5.5 60.5 q-66 35 -135 35q-12 0 -28.5 -24.5t-33.5 -30.5q-8 -4 -22.5 19.5t-18.5 25.5q-2 2 -22 -11q-6 -4 -10 -4q-8 0 -21.5 27t-21.5 27q-16 0 -17 28q0 33 68.5 38t68.5 13q0 2 -5 9.5t-5 11.5q0 10 23 37q20 -2 47 4q16 35 31 69q39 63 104 64q-29 0 24.5 9t86.5 9 q20 0 100 127q98 158 162 234q106 127 200 127q63 0 64 -64q0 -49 -203 -236.5t-203 -219.5q0 -2 17.5 -47.5t17.5 -77.5q0 -68 -38 -137.5t-38 -81.5t37 -41q109 -86 109 -189q0 -59 -37 -94q-55 -25 -115 -61q57 -18 58 -33q0 -4 -7.5 -17.5t-9.5 -13.5q-12 4 -28 0 q14 0 22 -8q2 -35 0 -39q-4 -12 -16 -25q-8 14 -23 25q-4 -2 7.5 -6t13.5 -10q2 -10 -47.5 -19.5t-54.5 -12.5t-5 -7q0 -14 53.5 -80t53.5 -84q0 -27 -69 -66t-99 -39q-20 0 -45 11q-31 14 -27 30q2 6 15.5 14.5t11.5 8.5q-10 -14 -41 -21q-4 2 2 17q2 14 0 14t-2 -12 t-4 -15q-16 -6 -27 19q-10 18 -10 33q0 39 50 56t50 30q0 37 -20 86q-29 68 -74 67q-59 0 -59 -47q0 -18 17 -49t17 -49q0 -31 -63 -51q-49 -16 -88 -17q-4 0 -64 23q14 14 21 31q-6 6 -17.5 -11.5t-17.5 -17.5q-12 0 -29 33q10 6 17 12q2 -2 -17 -6q-6 -2 -12 -2 q-8 0 -14 6zM74 217q8 0 24 -4q10 12 29 12l-11 -6q-11 -6 -12 -18q16 -25 25 -21q8 0 23.5 12.5t22.5 12.5t3 2q-8 -10 -22 -33q6 -20 47 -20q27 0 84 18q66 23 65 41l-20 43q-20 43 -21 57q0 53 74 54q78 0 82 -62q8 -86 61 -127v-20q-14 0 -41.5 4t-42.5 4q-57 0 -57 -57 q0 -10 16 -33q6 12 21 28q-2 -10 -4 -34q23 -2 35 22h22l-12 -18q-23 -14 -23 -25q0 -20 50 -20q29 0 94 35.5t65 60.5q0 14 -52 68.5t-52 82.5q0 27 41 33q51 6 59 17l-16 32q45 -23 47 -22q6 0 6 18q0 12 -17.5 21.5t-17.5 11.5q0 10 2 16q31 -10 41 -6l4 27q-18 6 -55 6 q-4 20 -4 35v10l2 6l-59 49h-21q-25 -123 -102 -122q-94 0 -109 100q-111 -117 -110 -180q0 -10 4 -31q8 -27 8 -33h-14q-12 20 -19 25h-24q-80 0 -119 -49v-23zM152 950q4 -6 4 -18q88 -12 266 -41q115 -20 141 -76h-2q-4 -2 -6 -4q-47 31 -74 39v-51q80 0 105 -47 q4 -8 18 -84q8 -47 49 -47q-4 0 17 6v22q-4 6 -23 37l2 10l10 2q35 -35 35 -63q0 -37 -37 -37q-35 0 -92 32t-92 32q-27 0 -43 -21q-6 -6 -31 -51l2 -33q23 18 31 41q6 0 14 -6q0 -4 -4 -29q-4 -20 4 -41q16 20 54 56q2 -12 2 -23q0 -10 -2 -20l-4 -11q0 -8 24 -26 q29 63 45 63q14 0 65.5 -32.5t69.5 -32.5q31 0 61 38.5t30 69.5q0 61 -41 113q-25 31 -78 71q-41 31 -41 46q0 -6 47 66.5t47 148.5q0 49 -49 133q0 35 205.5 227.5t205.5 224.5q0 47 -45 47q-96 0 -196 -127q-41 -53 -146 -233q-74 -127 -104 -127q-68 0 -96 -8l-29 -10 q6 0 -43 8q-8 -4 -25 -23q55 -2 82 -33l21 -32q16 2 29 2q94 0 94 -94q0 -84 -88 -84q-94 0 -95 92q0 23 17 41l29 32q-49 63 -70 64q-33 0 -70 -68v-18q41 -6 66 -25v-22h-27q-16 31 -47 31q8 0 -29 4q-16 2 -18 -9q-6 2 -12 -28q6 -6 12 -17q49 -25 96 -26v-19h-45 q-6 2 -40 15.5t-46 13.5q-73 0 -110 -31zM176 915l14 -28q20 -8 35 18q-22 4 -49 10zM197 682q2 -41 10 -41q4 0 17.5 24.5t15.5 26.5q-4 -18 -4 -39q0 -14 2 -28q4 2 30 -9q4 18 11 52l18 6q0 -10 -3 -29.5t-3 -30.5q0 -14 18 -6q10 4 27 23l16 26q23 -12 39 -12 q41 0 41 45q0 18 -57.5 45t-77.5 27q-63 0 -100 -80zM246 899l4 -29q4 -2 9 -11t13 -9q10 0 17 14l14 27zM375 498q0 -25 22.5 -45.5t46.5 -20.5q33 0 60 33q-25 37 -51 37q-4 0 -11.5 -3t-11.5 -3q2 -4 2 -9q0 -6 -22 -12q0 2 -6.5 6t-6.5 8q0 6 9 15q6 0 14 -4q8 -2 14 0 q-16 14 -53 30q-6 -36 -6 -32zM391 1106h19q0 -6 -15 -23zM457 1010q0 -35 24.5 -57.5t59.5 -22.5q33 0 54 23.5t21 56.5q0 31 -24.5 55.5t-54.5 24.5q-23 0 -51.5 -28.5t-28.5 -51.5zM459 688q43 -4 114 -24q8 41 9 28q0 23 -34 53.5t-54 30.5q-4 0 -17.5 -40t-17.5 -48z M522 1020q0 -8 8 16q10 0 17 -6q-4 -10 -21 -22q-4 8 -4 12z" />
<glyph unicode="&#x2022;" horiz-adv-x="1304" d="M102 647q0 78 82 78q31 0 93.5 -11.5t93.5 -11.5q98 0 135 11q78 20 78 90q0 43 20 82q25 47 64 47q59 0 149 -45q109 -53 150 -62q123 -27 159 -41q92 -35 93 -92q0 -16 -68 -86q-201 -209 -410 -209q-82 0 -106 56q-6 8 -21 104q-10 61 -51 70q-12 2 -63 -11 q-57 -12 -76 -12h-297q-25 16 -25 43z" />
<glyph unicode="&#x2026;" horiz-adv-x="1341" d="M45 1370q0 72 86 72q98 0 329 -147l230 -146q27 0 27 31q0 53 -181.5 223t-181.5 215q0 35 22.5 63.5t55.5 28.5q115 0 221 -135q66 -84 172 -289q6 -10 21 -80q12 -49 39 -63q23 -2 45 -2q37 -6 31 -51q-2 -10 4 -29t6 -27q0 -10 -8 -23l-9 -14l15 -12q14 -12 14 -27 q2 -27 -55 -26q-6 -2 -8 -2q51 12 73 8q16 -4 50 -22.5t32 -30.5q-4 -31 -28 -31q-10 0 -33 5t-35 5q-10 0 -18 -2l-15 -14q-18 -14 -45 -14q-14 0 -35 24q-14 -6 -47 -31l297 -36q10 74 35 73q12 0 43 -41q35 35 53 35q31 0 31 -29q0 -20 -18 -49q53 -27 53 -43 q0 -41 -39 -41q-14 0 -33 6q0 -25 2 -49q-2 -27 -26 -26q37 0 -37 32q-66 31 -111 43q-96 27 -235 27q-41 0 -50 -39v-74q0 -100 62 -145l115 -55q59 -29 59 -97q0 -8 -12 -40q-6 -18 -17 -48q23 0 58 11q106 -25 106 -66q0 -18 -67.5 -55t-90.5 -37q-18 0 -116 25 q-115 29 -115 51q0 33 72.5 81t72.5 70q0 25 -63 47q-53 18 -84 19l-21 -2q-20 -4 -43 -4q0 -12 5.5 -36t5.5 -36q0 -25 -21.5 -62.5t-44.5 -37.5q-84 -27 -194 -68q90 -37 90 -61q0 -33 -72 -58q-59 -23 -100 -22q-188 45 -189 114q35 113 180 113q20 0 115 19 q111 23 111 43q0 45 -74 77.5t-74 92.5q0 82 78 69q6 37 0 57q-8 29 -8 33q0 29 14 66q27 72 29 78h-141q-45 -4 -138 -25q25 -31 25 -41q0 -41 -35 -41q-6 0 -22.5 8.5t-20.5 8.5q-35 -35 -55 -35q-31 0 -31 30q0 14 8 33h-84q0 10 -4 29q0 25 38 39t38 16l-6 25 q-6 25 -6 41q0 49 43 49q18 0 26.5 -37t10.5 -37q25 16 116 43q92 12 170 12q37 0 95 -6q18 -2 32 -2q23 14 23 82q0 117 -152 180q-94 33 -284 103q-152 57 -152 143zM63 1372q0 -55 152 -110q225 -82 279 -113q152 -84 151 -203v-74q-8 -25 -59 -24q-322 0 -379 -43 q-25 -18 -41 -19q6 10 6 33q0 20 -6 51q-31 -27 -31 -53q0 -10 8 -31q8 -27 11 -34q-37 0 -48.5 -5.5t-35.5 -31.5q6 -2 18 -13q18 4 66 25h28v-18q-37 -35 -37 -47q0 -16 15 -19q4 -2 6 -4q31 16 47 57h16q12 -35 39 -34q6 0 9.5 10t7.5 12q-37 25 -37 43q0 16 100 31 q92 12 146 12q47 0 116 -14v-17q-43 0 -65 -49q-18 -37 -19 -86q0 -55 25 -96v-25h-23q-25 25 -30 27q-4 0 -22.5 -19.5t-18.5 -23.5q0 -2 22.5 -10t22.5 -17l-4 -16q-25 0 -39 -6q16 4 26 0q-4 -18 -12 -31q6 0 12 -4q14 6 31 23h16q0 -14 -4 -31q27 -8 50.5 -38t23.5 -58 q0 -45 -104 -60q-66 -6 -195 -26q-104 -20 -104 -89q0 -31 88 -65q76 -31 96 -31q10 0 43 4q-12 23 -25 25v22h25q14 -16 18 -28q16 4 29 6q0 10 -4 35h25q4 -25 4 -29q25 8 24 27q0 43 -125 43q-37 0 -65 -4q0 10 -6 22q76 14 225 47q141 33 141 123q0 33 -16 64v30 q23 -8 41 -6q41 6 43 6q49 0 98 -16q68 -23 68 -62q0 -45 -58 -79q-70 -43 -84 -82q23 -8 110 -31t101 -23q33 0 33 25q0 6 -6 18.5t-6 16.5h22q8 -14 19 -35q8 6 22 20l-6 33h21q4 -12 4 -30q31 8 32 10q8 10 15 20q-35 37 -129 37q-27 0 -72 -33q0 6 -6 13q66 104 66 127 q0 51 -66 82q-109 51 -131 69q-6 -25 -36 -41t-56 -16q-61 0 -94 71q-23 55 -23 127q0 135 61 170q27 14 136 17q4 31 0 49q-31 -18 -52 -18q-41 0 -41 28q0 18 28 37t46 19q43 0 150 -27l102 -27q16 0 35 19q0 6 -2 12q-27 16 -113 25q-72 8 -67 14l43 8q10 -4 18 -4 q18 0 29 20q-8 25 -25 27q18 -2 -33 -2q-25 0 -51 -24.5t-51 -24.5q-35 0 -59.5 22.5t-24.5 57.5q0 88 115 88q10 0 29.5 -4t29.5 -4q25 0 43 14q-20 16 -26 16q-23 -6 -46 -10q-53 225 -208 410q-139 166 -228 166q-25 0 -44 -22.5t-19 -47.5q0 -27 181 -201t181 -243 q0 -43 -45 -43q-37 0 -143 75q-164 117 -205 142q-129 76 -217 75q-20 0 -41 -16.5t-21 -36.5zM623 616q0 -174 92 -174q72 0 71 50q0 10 -10 56t-10 77q0 49 18 149q-49 14 -45 14q-55 0 -85.5 -52t-30.5 -120zM729 862q6 0 12 -4q33 4 54 35h-29q-17 -11 -37 -31zM737 487 v25q12 0 17 -4q-5 -9 -17 -21zM752 1016q0 -20 20.5 -39t40.5 -19t38.5 20.5t18.5 41.5q0 20 -21.5 38.5t-41.5 18.5q-23 0 -39 -19t-16 -42zM801 743q63 -4 192 -12q152 -12 224 -92q12 16 12 20q0 12 -25 50v30q39 -27 60 -26q20 0 36 26q-8 6 -53 17q-37 6 -43 24 q59 0 60 47q0 4 -2 7.5t-2 5.5h-25q-12 -16 -59 -54q-4 23 -31 60q0 -4 -6 -12.5t-6 -14.5l4 -12q2 -12 4 -27q-6 0 -37 -6l-285 29q-12 -37 -18 -60zM813 870q18 -12 23 -12q8 0 24 25q-23 0 -33 6q-4 -7 -14 -19zM829 1022q0 8 6.5 10t6.5 4l12 -6v-18q-12 -6 -16 -6 q-9 24 -9 16zM879 1067q4 -8 10 -47q2 -12 37 -12q18 0 30 16q-31 -6 -36 -6v29h24q-31 31 -43 30q-4 0 -11 -5t-11 -5zM889 858q16 -2 43 0q-12 8 -35 16z" />
<glyph unicode="&#x202f;" horiz-adv-x="489" />
<glyph unicode="&#x2039;" horiz-adv-x="1013" d="M172 762q0 98 78 184q57 63 209 170q88 63 266 207q80 66 119 66q37 0 69.5 -33t32.5 -70q0 -70 -135 -182q-57 -47 -254 -184q-135 -94 -135 -119q0 -51 249 -238.5t249 -210.5q0 -102 -117 -102q-104 0 -346 207q-53 43 -160 131q-125 106 -125 174z" />
<glyph unicode="&#x203a;" horiz-adv-x="1034" d="M236 1407q0 37 23.5 66.5t59.5 29.5q25 0 121 -98l226 -238q53 -55 231 -221q66 -61 66 -117q0 -109 -279 -340q-217 -180 -340 -180q-37 0 -62.5 26.5t-25.5 63.5q0 35 49 68q33 20 412 313q18 18 18 35q0 23 -104 121q-174 164 -260 254q-135 141 -135 217z" />
<glyph unicode="&#x205f;" horiz-adv-x="610" />
<glyph unicode="&#x2122;" horiz-adv-x="1970" d="M117 1485q0 68 127 112q98 35 174 35q51 0 217 -16q223 -23 303 -47q51 -16 137 -15q88 2 99 0q18 -8 106 -114q74 -90 154 -90q47 0 137 117.5t160 117.5q94 0 137 -203q27 -127 26 -270q0 -147 -6 -197q-18 -147 -86 -147q-61 0 -88 82q-12 49 -41 149q-25 82 -92 82 q-23 0 -73 -31.5t-52 -31.5q-49 0 -188 110q-33 -49 -94 -208q-41 -106 -89 -107q-74 0 -73 109q0 27 9 81t9 80q0 96 -51 183q-61 98 -152 98q-176 0 -176 -182q0 -49 15.5 -146.5t15.5 -146.5q0 -121 -100 -121q-74 0 -111 188q-16 113 -35 226q-31 147 -108 178l-140 29 q-71 14 -71 96z" />
<glyph unicode="&#xe000;" horiz-adv-x="975" d="M0 975h975v-975h-975v975z" />
<glyph unicode="&#xfb01;" horiz-adv-x="1841" d="M1450 459q0 43 49 272q14 10 92 55q90 -78 94 -139l-26 -221q-12 -51 -13 -92q0 -55 44 -122t44 -112q0 -27 -6 -61q-8 -8 -47 -10q-45 -4 -57 -11q-125 57 -150 136q-4 14 -16 188zM1575 1456q0 57 112 82q20 4 27 4q68 0 86 -90q2 -37 4 -111v-12q0 -45 -27 -59 q-10 -4 -55 -8q-7 -1 -13 -1q-64 0 -100 56q-27 41 -30 88zM8 938q0 41 58 68q43 20 71 20q14 0 52 -9t57 -9q18 0 26 8q20 63 64 192q135 383 625 383q127 0 245 -73q137 -84 137 -203q0 -41 -29.5 -71t-70.5 -30q-29 0 -72 41q-66 63 -98 80q-76 41 -180 41 q-156 0 -269 -102q-58 -52 -99.5 -122t-41.5 -139q0 -34 140 -40q211 -8 274 -25q152 -39 152 -151q0 -123 -144 -123q-53 0 -160.5 33.5t-158.5 33.5q-10 0 -27.5 3.5t-26.5 3.5q-18 0 -18 -25q0 -39 23 -170q14 -84 28 -170q37 -264 37 -289q0 -94 -94 -94q-88 0 -133 215 q-18 84 -45 391q-17 188 -43 188q-2 0 -4 -1q-57 14 -181 51q-33 4 -63.5 32.5t-30.5 61.5z" />
<glyph unicode="&#xfb02;" horiz-adv-x="1902" d="M1466 1237q6 379 136 379h1q88 -2 88 -221q0 -76 -10 -229.5t-10 -229.5q0 -84 8 -131q100 -590 100 -619q-2 -37 -44 -61.5t-64 -24.5q-102 2 -164 557q-41 370 -41 549v31zM8 938q0 41 58 68q43 20 71 20q14 0 52 -9t57 -9q18 0 26 8q20 63 64 192q135 383 625 383 q127 0 245 -73q137 -84 137 -203q0 -41 -29.5 -71t-70.5 -30q-29 0 -72 41q-66 63 -98 80q-76 41 -180 41q-156 0 -269 -102q-58 -52 -99.5 -122t-41.5 -139q0 -34 140 -40q211 -8 274 -25q152 -39 152 -151q0 -123 -144 -123q-53 0 -160.5 33.5t-158.5 33.5 q-10 0 -27.5 3.5t-26.5 3.5q-18 0 -18 -25q0 -39 23 -170q14 -84 28 -170q37 -264 37 -289q0 -94 -94 -94q-88 0 -133 215q-18 84 -45 391q-17 188 -43 188q-2 0 -4 -1q-57 14 -181 51q-33 4 -63.5 32.5t-30.5 61.5z" />
<glyph unicode="&#xfb03;" horiz-adv-x="3221" d="M2831 459q0 43 49 272q14 10 92 55q90 -78 94 -139l-26 -221q-12 -51 -13 -92q0 -55 44 -122t44 -112q0 -27 -6 -61q-8 -8 -47 -10q-45 -4 -57 -11q-125 57 -150 136q-4 14 -16 188zM2956 1456q0 57 112 82q20 4 27 4q68 0 86 -90q2 -37 4 -111v-12q0 -45 -27 -59 q-10 -4 -55 -8q-7 -1 -13 -1q-64 0 -100 56q-27 41 -30 88zM1388 938q0 41 58 68q43 20 71 20q14 0 52 -9t57 -9q18 0 26 8q20 63 64 192q135 383 625 383q127 0 245 -73q137 -84 137 -203q0 -41 -29.5 -71t-70.5 -30q-29 0 -72 41q-66 63 -98 80q-76 41 -180 41 q-156 0 -269 -102q-58 -52 -99.5 -122t-41.5 -139q0 -34 140 -40q211 -8 274 -25q152 -39 152 -151q0 -123 -144 -123q-53 0 -160.5 33.5t-158.5 33.5q-10 0 -27.5 3.5t-26.5 3.5q-18 0 -18 -25q0 -39 23 -170q14 -84 28 -170q37 -264 37 -289q0 -94 -94 -94q-88 0 -133 215 q-18 84 -45 391q-17 188 -43 188q-2 0 -4 -1q-57 14 -181 51q-33 4 -63.5 32.5t-30.5 61.5zM8 938q0 41 58 68q43 20 71 20q14 0 52 -9t57 -9q18 0 26 8q20 63 64 192q135 383 625 383q127 0 245 -73q137 -84 137 -203q0 -41 -29.5 -71t-70.5 -30q-29 0 -72 41 q-66 63 -98 80q-76 41 -180 41q-156 0 -269 -102q-58 -52 -99.5 -122t-41.5 -139q0 -34 140 -40q211 -8 274 -25q152 -39 152 -151q0 -123 -144 -123q-53 0 -160.5 33.5t-158.5 33.5q-10 0 -27.5 3.5t-26.5 3.5q-18 0 -18 -25q0 -39 23 -170q14 -84 28 -170q37 -264 37 -289 q0 -94 -94 -94q-88 0 -133 215q-18 84 -45 391q-17 188 -43 188q-2 0 -4 -1q-57 14 -181 51q-33 4 -63.5 32.5t-30.5 61.5z" />
<glyph unicode="&#xfb04;" horiz-adv-x="3282" d="M2847 1237q6 379 136 379h1q88 -2 88 -221q0 -76 -10 -229.5t-10 -229.5q0 -84 8 -131q100 -590 100 -619q-2 -37 -44 -61.5t-64 -24.5q-102 2 -164 557q-41 370 -41 549v31zM1388 938q0 41 58 68q43 20 71 20q14 0 52 -9t57 -9q18 0 26 8q20 63 64 192q135 383 625 383 q127 0 245 -73q137 -84 137 -203q0 -41 -29.5 -71t-70.5 -30q-29 0 -72 41q-66 63 -98 80q-76 41 -180 41q-156 0 -269 -102q-58 -52 -99.5 -122t-41.5 -139q0 -34 140 -40q211 -8 274 -25q152 -39 152 -151q0 -123 -144 -123q-53 0 -160.5 33.5t-158.5 33.5 q-10 0 -27.5 3.5t-26.5 3.5q-18 0 -18 -25q0 -39 23 -170q14 -84 28 -170q37 -264 37 -289q0 -94 -94 -94q-88 0 -133 215q-18 84 -45 391q-17 188 -43 188q-2 0 -4 -1q-57 14 -181 51q-33 4 -63.5 32.5t-30.5 61.5zM8 938q0 41 58 68q43 20 71 20q14 0 52 -9t57 -9 q18 0 26 8q20 63 64 192q135 383 625 383q127 0 245 -73q137 -84 137 -203q0 -41 -29.5 -71t-70.5 -30q-29 0 -72 41q-66 63 -98 80q-76 41 -180 41q-156 0 -269 -102q-58 -52 -99.5 -122t-41.5 -139q0 -34 140 -40q211 -8 274 -25q152 -39 152 -151q0 -123 -144 -123 q-53 0 -160.5 33.5t-158.5 33.5q-10 0 -27.5 3.5t-26.5 3.5q-18 0 -18 -25q0 -39 23 -170q14 -84 28 -170q37 -264 37 -289q0 -94 -94 -94q-88 0 -133 215q-18 84 -45 391q-17 188 -43 188q-2 0 -4 -1q-57 14 -181 51q-33 4 -63.5 32.5t-30.5 61.5z" />
</font>
</defs>
</svg>
